<?xml version="1.0" encoding="utf-8"?>
<!-- Generator: Adobe Illustrator 27.5.0, SVG Export Plug-In . SVG Version: 6.00 Build 0)  -->
<svg version="1.1" xmlns="http://www.w3.org/2000/svg" xmlns:xlink="http://www.w3.org/1999/xlink" x="0px" y="0px"
	 viewBox="0 0 800 500" style="enable-background:new 0 0 800 500;" xml:space="preserve">
<g id="_x31_01">
	<g>
		<g>
			<defs>
				<rect id="SVGID_1_" width="800" height="500"/>
			</defs>
			
				<linearGradient id="SVGID_00000150095368125839716490000011764894534775981196_" gradientUnits="userSpaceOnUse" x1="75" y1="575" x2="725" y2="-75">
				<stop  offset="0" style="stop-color:#D4D4D4"/>
				<stop  offset="1" style="stop-color:#FFFFFF"/>
			</linearGradient>
			<use xlink:href="#SVGID_1_"  style="overflow:visible;fill:url(#SVGID_00000150095368125839716490000011764894534775981196_);"/>
			<clipPath id="SVGID_00000106833715520605133640000014411197251337891518_">
				<use xlink:href="#SVGID_1_"  style="overflow:visible;"/>
			</clipPath>
			<g style="clip-path:url(#SVGID_00000106833715520605133640000014411197251337891518_);">
				<g>
					<g>
						<g>
							<path style="fill:#F05E82;" d="M441.409,631.614c-1.639,0-2.543-0.478-3.103-1.136c-4.942-5.814,19.185-33.874,52.579-72.711
								c56.906-66.183,134.843-156.823,111.75-189.651c-8.17-11.614-28.917-15.106-61.655-10.385
								c-36.804,5.31-89.888,21.173-157.778,47.149c-105.941,40.537-176.648,60.634-213.754,60.636
								c-14.881,0.001-24.354-3.23-28.534-9.672c-16.336-25.17,52.209-93.79,107.287-148.927
								c33.932-33.969,63.237-63.306,59.067-69.641c-1.741-2.646-9.751-1.155-23.808,4.431c-16.677,6.629-27.997,6.891-34.608,0.804
								c-16.037-14.766-0.519-65.688,15.91-119.6c19.573-64.23,41.758-137.03,13.397-159.809
								C256.92-53.955,210.375-41.829,135.866,0.17l-0.368-0.653c74.808-42.168,121.625-54.27,143.131-36.998
								c12.878,10.343,16.706,31.43,11.703,64.466C285.937,56,275.537,90.128,265.48,123.131
								c-16.358,53.68-31.81,104.383-16.12,118.829c6.377,5.873,17.44,5.562,33.823-0.95c14.841-5.897,22.692-7.213,24.711-4.146
								c4.506,6.846-23.591,34.974-59.164,70.584c-54.886,54.945-123.194,123.327-107.188,147.988
								c6.65,10.246,28.038,11.989,63.568,5.185c40.286-7.717,100.114-26.706,177.823-56.441
								c67.941-25.996,121.08-41.873,157.938-47.19c33.043-4.766,54.03-1.168,62.376,10.695
								c23.429,33.306-54.728,124.202-111.795,190.572c-30.641,35.635-57.104,66.411-52.575,71.736
								c3.376,3.974,24.21-5.829,63.699-29.968l0.391,0.641C462.072,625.665,447.186,631.613,441.409,631.614z"/>
						</g>
					</g>
					<g>
						<g>
							<path style="fill:#E60848;" d="M449.985,634.666c-1.509,0-2.569-0.373-3.203-1.109c-5.076-5.898,18.366-33.826,50.812-72.479
								c55.288-65.865,131.007-156.072,107.334-189.563c-8.357-11.823-29.008-15.686-61.382-11.483
								c-36.379,4.725-88.671,19.788-155.422,44.772c-146.073,54.672-224.331,70.103-239.25,47.167
								c-16.699-25.673,50.052-93.751,103.687-148.453c33.038-33.695,61.571-62.795,57.302-69.264
								c-1.783-2.702-9.697-1.339-23.521,4.047c-16.258,6.333-27.411,6.456-34.097,0.381
								c-16.463-14.961-1.933-66.286,13.452-120.625c18.372-64.894,39.196-138.445,9.919-161.517
								c-21.577-17.006-67.332-5.462-139.875,35.291l-0.367-0.654c72.836-40.918,118.861-52.442,140.707-35.226
								c13.286,10.47,17.645,31.788,13.328,65.173c-3.792,29.323-13.552,63.798-22.99,97.137
								c-15.319,54.109-29.789,105.217-13.669,119.866c6.456,5.867,17.355,5.694,33.32-0.525
								c14.599-5.687,22.358-6.883,24.419-3.761c4.603,6.974-22.755,34.876-57.392,70.202
								c-53.448,54.51-119.965,122.35-103.594,147.52c6.797,10.451,28.042,12.584,63.143,6.34
								c39.794-7.078,98.746-25.18,175.216-53.802c66.805-25.004,119.153-40.081,155.588-44.813
								c32.675-4.241,53.561-0.274,62.091,11.794c24.007,33.962-51.927,124.425-107.372,190.478
								c-29.769,35.464-55.478,66.093-50.816,71.509c3.462,4.023,23.938-5.501,62.588-29.128l0.391,0.641
								C476.832,625.059,457.64,634.666,449.985,634.666z"/>
						</g>
					</g>
					<g>
						<g>
							<path style="fill:#CC888C;" d="M458.577,637.967c-1.564,0.001-2.668-0.387-3.335-1.152
								c-5.214-5.984,17.553-33.792,49.064-72.279c53.69-65.578,127.223-155.391,102.951-189.558
								c-8.549-12.034-29.12-16.267-61.132-12.581c-35.969,4.142-87.487,18.411-153.125,42.413
								c-143.773,52.572-221.068,66.766-236.305,43.392c-17.072-26.188,47.916-93.757,100.134-148.05
								c32.156-33.433,59.926-62.306,55.557-68.909c-1.824-2.756-9.643-1.522-23.238,3.664c-15.845,6.043-26.831,6.033-33.588-0.029
								c-16.898-15.157-3.355-66.914,10.983-121.71c17.165-65.603,36.621-139.958,6.404-163.323
								c-21.909-16.94-66.88-5.963-137.481,33.56l-0.366-0.654c70.893-39.686,116.133-50.643,138.306-33.499
								c13.705,10.597,18.605,32.157,14.981,65.912c-3.183,29.65-12.301,64.496-21.118,98.194
								c-14.278,54.568-27.764,106.109-11.207,120.961c6.528,5.856,17.265,5.818,32.82-0.114c14.362-5.479,22.03-6.551,24.131-3.376
								c4.701,7.103-21.928,34.79-55.642,69.843c-52.034,54.1-116.792,121.431-100.046,147.119
								c6.949,10.659,28.06,13.182,62.743,7.497c39.319-6.443,97.416-23.664,172.676-51.185
								c65.693-24.021,117.27-38.305,153.297-42.453c32.31-3.72,53.11,0.617,61.829,12.893
								c24.603,34.633-49.139,124.701-102.982,190.466c-28.909,35.31-53.876,65.805-49.078,71.313
								c3.557,4.076,23.672-5.175,61.505-28.302l0.391,0.641C485.086,628.6,466.27,637.966,458.577,637.967z"/>
						</g>
					</g>
					<g>
						<g>
							<path style="fill:#E6168E;" d="M467.16,641.455c-1.622,0-2.771-0.402-3.472-1.196c-5.357-6.071,16.743-33.774,47.333-72.115
								c52.113-65.321,123.486-154.781,98.599-189.64c-8.746-12.248-29.232-16.851-60.906-13.678
								c-35.57,3.563-86.332,17.045-150.877,40.073c-95.846,34.194-161.81,51.178-199.237,51.18
								c-17.837,0.001-29.188-3.855-34.212-11.543c-17.453-26.712,45.79-93.794,96.607-147.695
								c31.289-33.188,58.311-61.85,53.836-68.59c-1.866-2.812-9.595-1.707-22.97,3.282c-15.435,5.758-26.254,5.618-33.076-0.425
								c-17.337-15.354-4.784-67.571,8.506-122.854c15.953-66.361,34.035-141.577,2.851-165.233
								c-22.222-16.856-66.412-6.431-135.098,31.877l-0.365-0.655c68.972-38.468,113.432-48.878,135.916-31.82
								c14.135,10.723,19.585,32.536,16.66,66.685c-2.569,29.997-11.041,65.239-19.234,99.321
								c-13.236,55.058-25.738,107.062-8.738,122.118c6.596,5.842,17.168,5.934,32.317,0.283
								c14.132-5.273,21.712-6.225,23.857-2.994c4.803,7.237-21.109,34.722-53.916,69.52
								c-50.636,53.71-113.655,120.554-96.524,146.77c7.102,10.869,28.085,13.782,62.369,8.655
								c38.858-5.811,96.123-22.158,170.201-48.588c64.602-23.048,115.424-36.544,151.054-40.112
								c31.961-3.204,52.679,1.505,61.592,13.988c25.217,35.319-46.36,125.035-98.623,190.543
								c-28.063,35.174-52.298,65.552-47.356,71.151c3.643,4.129,23.418-4.855,60.442-27.488l0.391,0.641
								C493.329,632.326,474.885,641.455,467.16,641.455z"/>
						</g>
					</g>
					<g>
						<g>
							<path style="fill:#B86C08;" d="M475.737,645.127c-1.68,0-2.874-0.417-3.61-1.24c-5.505-6.157,15.937-33.765,45.614-71.975
								C568.3,506.817,637.542,417.665,612.018,382.1c-8.946-12.465-29.368-17.437-60.705-14.774
								c-35.185,2.987-85.209,15.689-148.684,37.754c-139.328,48.431-214.785,60.174-230.684,35.898
								c-17.846-27.246,43.682-93.873,93.12-147.409c30.433-32.955,56.716-61.417,52.136-68.298
								c-1.909-2.869-9.549-1.892-22.707,2.903c-15.033,5.477-25.685,5.213-32.567-0.807c-17.782-15.554-6.22-68.261,6.02-124.064
								c14.733-67.167,31.433-143.297-0.742-167.242c-22.52-16.761-65.934-6.868-132.726,30.243l-0.364-0.655
								C201.19-71.621,244.87-81.497,267.652-64.542c32.563,24.234,15.809,100.616,1.026,168.005
								c-12.191,55.58-23.707,108.077-6.259,123.339c6.659,5.824,17.067,6.042,31.817,0.666c13.907-5.067,21.401-5.898,23.588-2.613
								c4.907,7.373-20.298,34.667-52.209,69.223c-49.261,53.345-110.568,119.733-93.043,146.489
								c7.26,11.086,28.129,14.389,62.02,9.814c38.413-5.182,94.865-20.662,167.789-46.011
								c63.533-22.084,113.619-34.8,148.867-37.792c31.618-2.683,52.267,2.391,61.377,15.084
								c25.85,36.021-43.59,125.428-94.294,190.71c-28.346,36.497-50.735,65.323-45.647,71.015
								c3.744,4.185,23.173-4.543,59.401-26.691l0.391,0.641C501.57,636.231,483.491,645.127,475.737,645.127z"/>
						</g>
					</g>
					<g>
						<g>
							<path style="fill:#F2002A;" d="M484.311,648.989c-1.738,0-2.979-0.432-3.753-1.285c-5.659-6.244,15.135-33.771,43.914-71.872
								c49.021-64.899,116.159-153.782,89.979-190.07c-9.149-12.681-29.515-18.017-60.525-15.867
								c-34.812,2.416-84.114,14.345-146.539,35.454c-137.184,46.389-211.765,56.914-228.006,32.178
								c-18.248-27.793,41.585-93.992,89.662-147.185c29.59-32.737,55.145-61.012,50.455-68.037
								c-1.954-2.925-9.508-2.076-22.454,2.524c-14.636,5.202-25.121,4.817-32.057-1.176c-18.234-15.755-7.667-68.985,3.52-125.34
								C282.01,30.29,297.315-46.809,264.126-71.04c-22.798-16.646-65.441-7.271-130.362,28.658l-0.363-0.656
								c65.204-36.085,108.108-45.443,131.168-28.607c33.575,24.514,18.221,101.862,4.674,170.105
								c-11.143,56.135-21.668,109.156-3.765,124.626c6.714,5.802,16.958,6.14,31.315,1.037c13.498-4.797,21.13-5.528,23.329-2.233
								c5.015,7.511-19.493,34.626-50.522,68.955c-47.903,53.001-107.521,118.961-89.591,146.271
								c7.421,11.303,28.179,14.997,61.697,10.976c37.982-4.556,93.644-19.175,165.441-43.453
								c62.485-21.13,111.852-33.071,146.728-35.491c31.287-2.176,51.874,3.27,61.185,16.177
								c26.505,36.736-40.826,125.875-89.989,190.961c-27.486,36.39-49.197,65.133-43.956,70.916
								c3.839,4.239,22.935-4.235,58.382-25.904l0.391,0.641C509.81,640.322,492.093,648.989,484.311,648.989z"/>
						</g>
					</g>
					<g>
						<g>
							<path style="fill:#F82888;" d="M492.885,653.039c-1.799,0-3.088-0.448-3.899-1.331c-5.817-6.33,14.335-33.791,42.227-71.799
								c47.505-64.735,112.565-153.394,85.708-190.422c-9.356-12.9-29.672-18.608-60.369-16.96
								c-34.45,1.847-83.049,13.007-144.445,33.17c-135.093,44.366-208.826,53.679-225.417,28.475
								c-18.661-28.353,39.502-94.151,86.237-147.022c28.757-32.533,53.593-60.63,48.791-67.801
								c-1.999-2.984-9.472-2.262-22.211,2.149c-14.242,4.932-24.56,4.43-31.543-1.532c-18.688-15.958-9.12-69.738,1.01-126.675
								c12.264-68.932,26.165-147.06-8.063-171.578C237.854-94.8,195.98-85.933,132.9-51.169l-0.362-0.657
								c63.359-34.918,105.494-43.77,128.81-27.07c34.612,24.793,20.667,103.169,8.365,172.319
								c-10.091,56.72-19.623,110.293-1.262,125.973c6.762,5.774,16.84,6.23,30.81,1.393c13.284-4.6,20.834-5.208,23.079-1.857
								c5.125,7.651-18.695,34.598-48.852,68.714c-46.566,52.679-104.518,118.24-86.172,146.112
								c7.585,11.525,28.245,15.612,61.4,12.14c37.566-3.931,92.46-17.696,163.156-40.914
								c61.459-20.184,110.123-31.355,144.64-33.206c30.965-1.659,51.501,4.149,61.017,17.269
								c27.179,37.472-38.069,126.385-85.711,191.307c-26.639,36.299-47.679,64.971-42.279,70.847
								c3.939,4.282,22.708-3.934,57.381-25.13l0.391,0.641C518.05,644.596,500.688,653.038,492.885,653.039z"/>
						</g>
					</g>
					<g>
						<g>
							<path style="fill:#EA56B0;" d="M501.46,657.278c-1.858,0-3.195-0.464-4.047-1.377c-5.98-6.415,13.537-33.822,40.551-71.754
								c46.007-64.602,109.015-153.077,81.46-190.861c-9.567-13.121-29.83-19.197-60.234-18.05
								c-34.101,1.282-82.011,11.681-142.398,30.906c-69.676,22.182-123.876,35.108-161.096,38.422
								c-33.101,2.948-53.902-1.643-61.82-13.642c-19.086-28.924,37.433-94.353,82.846-146.926
								c27.936-32.341,52.063-60.271,47.146-67.591c-2.045-3.044-9.438-2.447-21.972,1.774c-13.858,4.667-24.01,4.053-31.032-1.876
								c-19.148-16.165-10.584-70.527-1.517-128.08c11.01-69.887,23.49-149.1-11.797-173.899
								c-23.298-16.373-64.403-7.992-125.665,25.623l-0.361-0.657c61.539-33.767,102.903-42.133,126.458-25.58
								c35.669,25.068,23.151,104.526,12.107,174.63c-9.034,57.338-17.566,111.497,1.26,127.39
								c6.805,5.745,16.72,6.313,30.309,1.738c13.078-4.403,20.546-4.888,22.834-1.481c5.236,7.794-17.904,34.583-47.202,68.499
								c-45.248,52.382-101.561,117.572-82.788,146.022c7.754,11.752,28.319,16.231,61.128,13.308
								c37.165-3.309,91.311-16.225,160.935-38.39c60.451-19.246,108.429-29.656,142.597-30.941
								c30.685-1.149,51.145,5.024,60.869,18.358c27.873,38.222-35.316,126.951-81.455,191.738
								c-25.8,36.227-46.177,64.84-40.614,70.808c4.043,4.332,22.489-3.641,56.402-24.372l0.391,0.641
								C526.293,649.057,509.282,657.277,501.46,657.278z"/>
						</g>
					</g>
					<g>
						<g>
							<path style="fill:#845A0C;" d="M510.042,661.714c-1.917,0-3.306-0.479-4.198-1.423c-6.15-6.502,12.741-33.869,38.889-71.746
								c44.525-64.499,105.505-152.835,77.232-191.394c-9.784-13.343-30.018-19.793-60.123-19.14
								c-33.764,0.721-81.002,10.364-140.402,28.661c-68.628,21.139-122.101,33.222-158.934,35.915
								c-32.757,2.392-53.473-2.588-61.56-14.811c-19.521-29.508,35.371-94.592,79.477-146.888
								c27.128-32.165,50.556-59.944,45.521-67.416c-2.091-3.104-9.408-2.632-21.747,1.4c-13.479,4.407-23.46,3.687-30.515-2.205
								c-19.608-16.372-12.053-71.343-4.054-129.542c9.745-70.9,20.79-151.26-15.579-176.341
								c-23.516-16.215-63.856-8.308-123.327,24.176l-0.359-0.658c59.743-32.633,100.338-40.528,124.112-24.135
								c36.749,25.343,25.67,105.946,15.896,177.06c-7.97,57.987-15.498,112.759,3.792,128.865
								c6.84,5.711,16.587,6.388,29.801,2.067c12.875-4.209,20.268-4.57,22.602-1.107c5.353,7.941-17.119,34.586-45.569,68.318
								c-43.945,52.104-98.636,116.951-79.424,145.99c7.926,11.979,28.407,16.851,60.879,14.478
								c36.777-2.688,90.194-14.762,158.768-35.884c59.467-18.317,106.773-27.972,140.606-28.694
								c30.381-0.649,50.808,5.895,60.744,19.446c28.59,38.989-32.565,127.578-77.219,192.263
								c-24.971,36.173-44.694,64.745-38.961,70.805c4.137,4.381,22.276-3.352,55.439-23.624l0.391,0.641
								C534.544,653.709,517.88,661.713,510.042,661.714z"/>
						</g>
					</g>
					<g>
						<g>
							<path style="fill:#AE6E02;" d="M518.535,666.291c-1.938,0-3.348-0.476-4.252-1.417c-6.325-6.587,11.947-33.927,37.237-71.767
								c43.063-64.43,102.037-152.67,73.021-192.023c-9.898-13.426-29.782-20.231-59.104-20.231c-0.31,0-0.618,0.001-0.93,0.002
								c-33.438,0.163-80.02,9.056-138.452,26.432c-67.606,20.104-120.373,31.351-156.834,33.425
								c-32.429,1.84-53.063-3.533-61.323-15.983c-19.969-30.103,33.321-94.873,76.14-146.915
								c26.33-32.002,49.069-59.64,43.912-67.266c-2.14-3.166-9.384-2.818-21.527,1.029c-13.106,4.154-22.918,3.328-30-2.523
								c-20.074-16.584-13.534-72.198-6.609-131.078c8.463-71.961,18.055-153.524-19.415-178.882
								c-23.709-16.046-63.287-8.594-120.992,22.778l-0.358-0.659c57.976-31.519,97.807-38.956,121.77-22.741
								c37.848,25.613,28.228,107.417,19.74,179.591c-6.899,58.671-13.417,114.088,6.342,130.412
								c6.869,5.675,16.452,6.456,29.295,2.386c12.675-4.017,19.994-4.256,22.374-0.734c5.471,8.09-16.34,34.6-43.954,68.163
								c-42.662,51.852-95.755,116.383-76.094,146.023c8.102,12.213,28.509,17.481,60.655,15.649
								c36.403-2.071,89.112-13.307,156.663-33.395c58.501-17.396,105.153-26.3,138.662-26.463
								c30.095-0.102,50.488,6.763,60.641,20.533c29.329,39.777-29.815,128.27-73,192.886c-24.151,36.136-43.227,64.679-37.32,70.83
								c4.244,4.419,22.068-3.066,54.496-22.891l0.391,0.641C543.034,658.412,526.422,666.29,518.535,666.291z"/>
						</g>
					</g>
					<g>
						<g>
							<path style="fill:#8E7A08;" d="M527.146,671.118c-1.997,0-3.459-0.49-4.406-1.462c-6.507-6.671,11.153-33.999,35.596-71.823
								c41.612-64.392,98.601-152.579,68.819-192.747c-10.227-13.792-30.401-20.964-59.965-21.314
								c-33.127-0.388-79.063,7.754-136.547,24.219c-66.609,19.078-118.688,29.49-154.79,30.947
								c-32.118,1.302-52.675-4.478-61.11-17.16c-20.428-30.714,31.28-95.196,72.828-147.009
								c25.54-31.85,47.598-59.356,42.317-67.14c-2.189-3.227-9.36-3.004-21.314,0.659c-12.739,3.906-22.385,2.98-29.485-2.827
								c-20.54-16.799-15.021-73.086-9.179-132.678c7.165-73.077,15.285-155.905-23.304-181.537
								c-23.876-15.859-62.691-8.852-118.66,21.426l-0.357-0.66c56.234-30.422,95.3-37.42,119.432-21.391
								c38.964,25.881,30.82,108.947,23.635,182.234c-5.822,59.386-11.322,115.479,8.907,132.024
								c6.891,5.636,16.308,6.517,28.79,2.691c12.479-3.825,19.726-3.943,22.155-0.364c5.592,8.242-15.566,34.627-42.352,68.031
								c-41.395,51.622-92.913,115.866-72.789,146.124c8.281,12.45,28.623,18.103,60.456,16.826
								c36.042-1.455,88.062-11.857,154.613-30.919c57.554-16.483,103.529-24.638,136.763-24.248
								c29.81,0.354,50.185,7.627,60.559,21.618c30.092,40.585-27.06,129.025-68.792,193.601
								c-23.342,36.12-41.778,64.649-35.688,70.893c4.35,4.463,21.873-2.791,53.573-22.17l0.391,0.641
								C551.31,663.454,535.043,671.118,527.146,671.118z"/>
						</g>
					</g>
					<g>
						<g>
							<path style="fill:#CE4A14;" d="M535.765,676.142c-2.058,0-3.57-0.505-4.563-1.506c-6.693-6.756,10.36-34.084,33.965-71.908
								c40.18-64.387,95.208-152.567,64.638-193.568c-10.453-14.02-30.611-21.556-59.916-22.399
								c-32.813-0.952-78.132,6.465-134.684,22.023c-65.637,18.061-117.049,27.645-152.808,28.485
								c-31.803,0.757-52.307-5.422-60.923-18.34c-20.9-31.338,29.246-95.562,69.539-147.166
								c24.762-31.713,46.147-59.102,40.739-67.047c-2.239-3.287-9.339-3.19-21.111,0.291c-12.381,3.662-21.856,2.642-28.968-3.12
								c-21.005-17.018-16.516-74.008-11.763-134.344c5.849-74.248,12.478-158.402-27.247-184.306
								c-24.024-15.664-62.075-9.083-116.333,20.118l-0.355-0.66c54.523-29.343,92.826-35.913,117.098-20.086
								c40.098,26.147,33.45,110.537,27.585,184.993c-4.737,60.134-9.211,116.933,11.488,133.703
								c6.906,5.595,16.157,6.57,28.283,2.984c12.288-3.635,19.466-3.632,21.943,0.006c5.717,8.397-14.797,34.669-40.768,67.931
								c-40.144,51.414-90.105,115.4-69.505,146.288c8.464,12.69,28.756,18.747,60.281,18.007
								c35.697-0.841,87.048-10.416,152.626-28.459c56.624-15.579,102.02-23.006,134.904-22.051
								c29.545,0.852,49.899,8.488,60.496,22.701c30.877,41.411-24.309,129.844-64.604,194.413
								c-22.54,36.12-40.344,64.649-34.067,70.983c4.45,4.497,21.679-2.522,52.661-21.461l0.391,0.641
								C559.593,668.688,543.668,676.141,535.765,676.142z"/>
						</g>
					</g>
					<g>
						<g>
							<path style="fill:#982E1A;" d="M544.409,681.367c-2.117,0-3.683-0.519-4.721-1.551c-6.887-6.839,9.567-34.184,32.341-72.03
								c38.761-64.414,91.845-152.631,60.461-194.485c-10.683-14.247-30.831-22.148-59.886-23.482
								c-32.521-1.487-77.225,5.185-132.864,19.848c-64.688,17.049-115.451,25.809-150.877,26.035
								c-31.543,0.175-51.959-6.367-60.758-19.524c-21.386-31.977,27.217-95.969,66.269-147.388
								c23.994-31.591,44.715-58.874,39.175-66.982c-2.29-3.35-9.326-3.377-20.916-0.076c-12.027,3.426-21.334,2.313-28.451-3.401
								c-21.473-17.242-18.022-74.966-14.368-136.08c4.512-75.472,9.626-161.013-31.249-187.184
								c-24.137-15.454-61.429-9.287-114.003,18.857l-0.354-0.661c52.836-28.284,90.374-34.441,114.762-18.828
								c41.245,26.409,36.117,112.183,31.593,187.86c-3.642,60.915-7.082,118.452,14.088,135.451
								c6.913,5.551,15.999,6.62,27.776,3.265c12.101-3.447,19.213-3.325,21.741,0.375c5.844,8.555-14.033,34.726-39.197,67.858
								c-38.909,51.229-87.332,114.985-66.244,146.518c8.65,12.935,28.874,19.41,60.13,19.191
								c35.364-0.227,86.064-8.977,150.69-26.01c55.712-14.684,100.488-21.37,133.09-19.872c29.289,1.345,49.628,9.346,60.451,23.78
								c31.687,42.259-21.548,130.726-60.417,195.322c-21.748,36.141-38.926,64.688-32.456,71.111
								c4.565,4.535,21.5-2.262,51.773-20.768l0.391,0.641C567.902,674.121,552.313,681.366,544.409,681.367z"/>
						</g>
					</g>
					<g>
						<g>
							<path style="fill:#D85602;" d="M553.079,686.796c-2.177,0-3.796-0.535-4.88-1.595c-7.088-6.922,8.773-34.298,30.725-72.187
								c37.354-64.473,88.513-152.771,56.291-195.502c-10.915-14.476-31.06-22.739-59.875-24.561
								c-32.242-2.042-76.343,3.912-131.086,17.687c-63.764,16.045-113.873,23.982-149.007,23.598
								c-31.236-0.344-51.631-7.313-60.618-20.714c-21.884-32.631,25.195-96.421,63.023-147.676
								c23.234-31.482,43.3-58.67,37.626-66.946c-2.374-3.463-9.153-3.608-20.728-0.443c-11.683,3.195-20.821,1.995-27.936-3.67
								c-21.938-17.47-19.533-75.96-16.987-137.884c3.155-76.751,6.732-163.741-35.306-190.176
								c-24.229-15.235-60.758-9.464-111.677,17.642l-0.353-0.662c51.179-27.244,87.955-33.005,112.428-17.615
								c42.406,26.666,38.82,113.887,35.656,190.841c-2.538,61.729-4.935,120.035,16.705,137.267
								c6.915,5.506,15.835,6.662,27.27,3.534c11.919-3.26,18.967-3.017,21.544,0.743c5.976,8.716-13.272,34.796-37.641,67.815
								c-37.689,51.066-84.594,114.62-63.004,146.813c8.842,13.184,29.03,20.041,60.004,20.382
								c35.079,0.397,85.114-7.546,148.815-23.574c54.819-13.794,98.995-19.748,131.317-17.709
								c29.043,1.837,49.373,10.2,60.427,24.857c32.521,43.128-18.782,131.676-56.241,196.33
								c-20.963,36.182-37.521,64.76-30.851,71.274c4.671,4.562,21.32-2.005,50.896-20.085l0.391,0.641
								C576.235,679.754,560.98,686.796,553.079,686.796z"/>
						</g>
					</g>
					<g>
						<g>
							<path style="fill:#DE3210;" d="M561.776,692.431c-2.236,0.001-3.907-0.548-5.041-1.637
								c-7.294-7.004,7.977-34.425,29.115-72.377c35.959-64.566,85.207-152.991,52.123-196.622
								c-11.151-14.706-31.299-23.332-59.883-25.64c-31.962-2.579-75.482,2.646-129.35,15.542
								c-62.862,15.047-112.393,22.171-147.186,21.172c-30.967-0.889-51.322-8.26-60.501-21.907
								c-22.395-33.3,23.178-96.914,59.796-148.029c22.484-31.385,41.902-58.49,36.091-66.936
								c-2.427-3.528-9.148-3.791-20.546-0.809c-11.348,2.97-20.317,1.686-27.421-3.928
								c-22.402-17.702-21.053-76.989-19.626-139.757c1.776-78.084,3.79-166.587-39.422-193.282
								c-24.287-15.005-60.058-9.618-109.354,16.472l-0.351-0.663c49.551-26.224,85.565-31.604,110.099-16.447
								C273.898-115.497,271.88-26.766,270.1,51.52c-1.424,62.576-2.768,121.681,19.34,139.151
								c6.907,5.456,15.662,6.698,26.766,3.791c11.741-3.074,18.727-2.711,21.354,1.109c6.109,8.881-12.517,34.881-36.099,67.798
								c-36.483,50.927-81.888,114.307-59.784,147.175c9.036,13.435,29.189,20.694,59.9,21.575c34.743,1,84.194-6.12,146.991-21.151
								c53.942-12.912,97.544-18.149,129.584-15.561c28.806,2.326,49.134,11.052,60.42,25.935
								c33.381,44.021-16.006,132.693-52.065,197.44c-20.185,36.242-36.128,64.868-29.251,71.472
								c4.782,4.596,21.148-1.756,50.038-19.417l0.391,0.641C584.599,685.588,569.671,692.431,561.776,692.431z"/>
						</g>
					</g>
					<g>
						<g>
							<path style="fill:#E25CD2;" d="M570.503,698.277c-2.295,0-4.018-0.563-5.201-1.679c-7.507-7.086,7.181-34.565,27.51-72.6
								c34.579-64.693,81.936-153.293,47.961-197.848c-11.39-14.937-31.545-23.926-59.906-26.716
								c-31.699-3.12-74.647,1.395-127.652,13.414c-61.983,14.057-110.909,20.372-145.421,18.759
								c-30.709-1.432-51.033-9.205-60.407-23.104c-22.922-33.985,21.162-97.454,56.583-148.453
								c21.742-31.302,40.519-58.336,34.566-66.958c-2.48-3.593-9.144-3.977-20.374-1.172c-11.018,2.752-19.818,1.387-26.906-4.175
								c-22.862-17.94-22.579-78.054-22.28-141.697c0.374-79.476,0.798-169.557-43.597-196.51
								c-24.321-14.766-59.33-9.747-107.03,15.342l-0.35-0.664c47.952-25.221,83.203-30.232,107.769-15.319
								c44.757,27.173,44.333,117.479,43.958,197.154c-0.299,63.455-0.581,123.39,21.993,141.103
								c6.895,5.409,15.484,6.729,26.262,4.037c11.567-2.89,18.493-2.409,21.173,1.473c6.247,9.048-11.764,34.981-34.567,67.811
								c-35.291,50.811-79.212,114.046-56.577,147.607c9.234,13.691,29.361,21.354,59.82,22.774
								c34.45,1.608,83.304-4.699,145.22-18.74c53.085-12.04,96.114-16.562,127.892-13.43c28.577,2.811,48.909,11.898,60.43,27.007
								c34.267,44.938-13.222,133.783-47.896,198.656c-19.414,36.32-34.747,65.009-27.657,71.7
								c4.896,4.621,20.983-1.519,49.188-18.761l0.391,0.641C592.987,691.63,578.385,698.276,570.503,698.277z"/>
						</g>
					</g>
					<g>
						<g>
							<path style="fill:#BC0220;" d="M579.267,704.332c-2.353,0-4.129-0.576-5.362-1.72c-7.728-7.165,6.382-34.721,25.908-72.858
								c33.206-64.854,78.682-153.672,43.792-199.176c-11.631-15.169-31.801-24.52-59.95-27.791
								c-31.442-3.653-73.835,0.148-125.998,11.305c-61.124,13.072-109.471,18.574-143.705,16.355
								c-30.462-1.976-50.762-10.153-60.335-24.307c-23.461-34.688,19.151-98.04,53.391-148.944
								c21.009-31.235,39.153-58.21,33.057-67.009c-2.535-3.66-9.146-4.161-20.206-1.535c-10.695,2.541-19.33,1.098-26.395-4.411
								c-23.32-18.184-24.115-79.155-24.956-143.706c-1.055-80.924-2.25-172.646-47.835-199.852
								c-24.326-14.518-58.577-9.855-104.712,14.257l-0.348-0.665c46.385-24.242,80.876-28.899,105.444-14.236
								c45.945,27.421,47.143,119.366,48.2,200.486c0.839,64.366,1.631,125.163,24.668,143.125
								c6.874,5.361,15.301,6.758,25.76,4.273c11.396-2.707,18.263-2.106,20.996,1.837c6.388,9.22-11.016,35.095-33.051,67.854
								c-34.114,50.718-76.57,113.838-53.392,148.105c9.436,13.951,29.543,22.02,59.762,23.979
								c34.16,2.213,82.442-3.282,143.5-16.342c52.242-11.173,94.717-14.98,126.241-11.315c28.358,3.296,48.699,12.743,60.459,28.08
								c35.178,45.88-10.423,134.942-43.72,199.974c-18.647,36.421-33.377,65.188-26.066,71.967
								c5.006,4.639,20.821-1.286,48.355-18.119l0.391,0.641C601.415,697.877,587.133,704.331,579.267,704.332z"/>
						</g>
					</g>
					<g>
						<g>
							<path style="fill:#967282;" d="M588.061,710.598c-2.407,0-4.238-0.59-5.522-1.76c-7.953-7.242,5.581-34.888,24.313-73.15
								c31.845-65.047,75.458-154.133,39.627-200.611c-11.873-15.401-32.063-25.112-60.006-28.862
								c-31.195-4.187-73.043-1.088-124.378,9.211c-60.29,12.095-108.082,16.792-142.047,13.961
								c-30.228-2.519-50.511-11.104-60.287-25.517c-24.016-35.407,17.139-98.669,50.207-149.502
								c20.283-31.179,37.8-58.106,31.556-67.087c-2.591-3.726-9.149-4.347-20.047-1.896c-10.237,2.303-18.945,0.742-25.884-4.638
								c-23.773-18.435-25.655-80.295-27.647-145.789c-2.507-82.428-5.349-175.854-52.126-203.309
								c-24.3-14.263-57.792-9.94-102.392,13.216l-0.346-0.666c44.848-23.284,78.578-27.6,103.117-13.197
								c47.134,27.665,49.983,121.311,52.496,203.934c1.987,65.311,3.863,127.001,27.357,145.218
								c6.848,5.311,15.11,6.782,25.26,4.499c11.231-2.526,18.042-1.806,20.828,2.2c6.533,9.395-10.27,35.224-31.543,67.924
								c-32.947,50.647-73.951,113.677-50.215,148.672c9.643,14.216,29.738,22.69,59.728,25.19
								c33.898,2.825,81.617-1.869,141.837-13.949c51.416-10.315,93.347-13.416,124.625-9.219
								c28.146,3.776,48.502,13.583,60.5,29.147c36.116,46.848-7.616,136.176-39.548,201.399
								c-17.889,36.54-32.019,65.402-24.481,72.267c5.111,4.658,20.663-1.063,47.533-17.49l0.391,0.641
								C609.871,704.331,595.906,710.598,588.061,710.598z"/>
						</g>
					</g>
					<g>
						<g>
							<path style="fill:#F86604;" d="M596.903,717.084c-2.462,0-4.346-0.603-5.682-1.798c-8.187-7.319,4.776-35.07,22.717-73.479
								c30.491-65.277,72.251-154.678,35.451-202.158c-12.119-15.636-32.332-25.706-60.079-29.932
								c-30.955-4.716-72.272-2.314-122.796,7.135c-59.478,11.121-106.729,15.017-140.438,11.577
								c-30.004-3.063-50.278-12.056-60.261-26.731c-24.586-36.145,15.128-99.348,47.04-150.133
								c19.566-31.137,36.463-58.028,30.067-67.194c-2.647-3.794-9.155-4.531-19.894-2.257c-9.936,2.106-18.476,0.472-25.379-4.855
								c-24.223-18.693-27.205-81.475-30.361-147.943c-3.988-83.99-8.509-179.186-56.48-206.887
								c-24.244-14-56.979-10.005-100.074,12.214l-0.344-0.667c43.34-22.344,76.311-26.334,100.793-12.197
								c48.326,27.905,52.857,123.318,56.854,207.5c3.148,66.29,6.122,128.904,30.07,147.385c6.816,5.26,14.916,6.803,24.766,4.716
								c11.065-2.346,17.825-1.508,20.665,2.561c6.681,9.573-9.527,35.367-30.047,68.022
								c-31.795,50.6-71.366,113.572-47.055,149.311c9.853,14.484,29.944,23.369,59.717,26.407
								c33.641,3.434,80.817-0.459,140.223-11.568c50.61-9.464,92.009-11.865,123.048-7.14
								c27.943,4.256,48.317,14.421,60.559,30.214c37.08,47.843-4.791,137.483-35.364,202.936
								c-17.134,36.682-30.668,65.655-22.896,72.603c5.227,4.672,20.508-0.85,46.726-16.876l0.391,0.641
								C618.375,711.001,604.723,717.083,596.903,717.084z"/>
						</g>
					</g>
					<g>
						<g>
							<path style="fill:#9E7A72;" d="M605.787,723.787c-2.516,0.001-4.45-0.614-5.839-1.833
								c-8.428-7.396,3.968-35.268,21.122-73.845c29.145-65.541,69.063-155.303,31.266-203.815
								c-12.365-15.871-32.607-26.302-60.165-31.001c-30.729-5.243-71.523-3.534-121.254,5.072
								c-58.682,10.157-105.408,13.256-138.875,9.205c-29.79-3.604-50.063-13.008-60.256-27.95
								c-25.172-36.9,13.116-100.073,43.881-150.833c18.855-31.11,35.139-57.977,28.587-67.331
								c-2.705-3.862-9.164-4.718-19.748-2.616c-9.643,1.917-18.011,0.212-24.876-5.063
								c-24.665-18.958-28.758-82.689-33.091-150.163c-5.498-85.612-11.729-182.646-60.896-210.59
								c-24.163-13.731-56.143-10.051-97.768,11.254l-0.342-0.668c41.867-21.428,74.08-25.105,98.48-11.238
								c49.52,28.143,55.765,125.392,61.275,211.194c4.322,67.299,8.404,130.866,32.8,149.616c6.778,5.21,14.717,6.821,24.271,4.922
								c10.908-2.167,17.615-1.211,20.508,2.921c6.833,9.755-8.786,35.525-28.56,68.15c-30.653,50.576-68.803,113.52-43.903,150.021
								c10.065,14.756,30.161,24.052,59.727,27.629c33.395,4.04,80.046,0.945,138.656-9.199
								c49.816-8.622,90.697-10.327,121.508-5.074c27.748,4.732,48.147,15.257,60.631,31.28
								C691,492.7,650.978,582.699,621.756,648.414c-16.384,36.844-29.325,65.945-21.313,72.977
								c5.34,4.683,20.358-0.644,45.927-16.273l0.391,0.641C626.92,717.886,613.576,723.786,605.787,723.787z"/>
						</g>
					</g>
					<g>
						<g>
							<path style="fill:#EC3056;" d="M614.724,730.711c-2.565,0-4.553-0.626-5.994-1.868c-8.676-7.469,3.154-35.48,19.526-74.249
								c27.805-65.839,65.885-156.008,27.066-205.58c-12.613-16.107-32.89-26.897-60.266-32.067
								c-30.506-5.764-70.794-4.742-119.746,3.03c-57.912,9.197-104.128,11.496-137.365,6.839
								c-29.588-4.147-49.868-13.964-60.275-29.178c-25.772-37.675,11.102-100.845,40.731-151.602
								c18.152-31.095,33.828-57.951,27.118-67.498c-2.763-3.931-9.176-4.904-19.609-2.975c-9.357,1.73-17.557-0.04-24.374-5.262
								c-25.101-19.229-30.317-83.943-35.84-152.456c-7.036-87.293-15.011-186.232-65.37-214.413
								c-24.052-13.458-55.277-10.078-95.461,10.335l-0.34-0.669c40.424-20.535,71.88-23.91,96.167-10.32
								c50.708,28.376,58.7,127.528,65.751,215.007c5.509,68.342,10.712,132.894,35.548,151.921
								c6.736,5.159,14.514,6.834,23.781,5.12c10.75-1.989,17.41-0.915,20.359,3.28c6.988,9.941-8.048,35.699-27.083,68.308
								c-29.522,50.574-66.264,113.517-40.76,150.8c10.283,15.033,30.389,24.742,59.76,28.858
								c33.164,4.647,79.304,2.349,137.144-6.836c49.039-7.786,89.413-8.805,120.003-3.027c27.56,5.206,47.987,16.087,60.717,32.342
								c39.091,49.92,0.911,140.324-26.966,206.335c-15.638,37.028-27.99,66.276-19.728,73.389
								c5.442,4.685,20.207-0.442,45.141-15.685l0.391,0.641C635.517,724.987,622.478,730.711,614.724,730.711z"/>
						</g>
					</g>
					<g>
						<g>
							<path style="fill:#C4122E;" d="M623.706,737.865c-2.615,0-4.652-0.637-6.148-1.9c-8.929-7.541,2.338-35.707,17.932-74.69
								c26.471-66.174,62.725-156.803,22.855-207.468c-12.862-16.345-33.176-27.492-60.378-33.132
								c-30.29-6.279-70.084-5.941-118.273,1.004c-57.16,8.24-102.884,9.747-135.903,4.48c-29.397-4.69-49.689-14.921-60.314-30.41
								c-26.388-38.471,9.086-101.666,37.59-152.444c17.454-31.094,32.528-57.948,25.655-67.692c-2.821-4-9.189-5.089-19.476-3.331
								c-9.078,1.553-17.114-0.283-23.881-5.454C277.831,147.314,271.478,81.587,264.752,12
								c-8.605-89.031-18.359-189.941-69.903-218.355c-23.911-13.182-54.385-10.089-93.161,9.453l-0.338-0.67
								c39.015-19.662,69.717-22.749,93.861-9.439c51.891,28.605,61.665,129.725,70.288,218.94
								c6.71,69.42,13.047,134.989,38.32,154.303c6.688,5.111,14.307,6.847,23.3,5.311c10.596-1.811,17.21-0.622,20.214,3.638
								c7.146,10.13-7.311,35.885-25.614,68.491c-28.402,50.598-63.75,113.567-37.625,151.652
								c10.504,15.314,30.628,25.439,59.814,30.095c32.942,5.254,78.592,3.746,135.678-4.482
								c48.277-6.96,88.158-7.295,118.533-0.996c27.38,5.677,47.841,16.915,60.815,33.402
								c40.137,51.005,3.791,141.866-22.748,208.211c-14.894,37.235-26.66,66.646-18.143,73.838
								c5.55,4.688,20.063-0.255,44.362-15.109l0.391,0.641C644.158,732.315,631.422,737.865,623.706,737.865z"/>
						</g>
					</g>
					<g>
						<g>
							<path style="fill:#C8529E;" d="M632.743,745.243c-2.661,0-4.748-0.648-6.297-1.93c-9.19-7.611,1.516-35.946,16.334-75.163
								c25.143-66.545,59.576-157.681,18.63-209.472c-13.112-16.584-33.468-28.089-60.502-34.196
								c-30.083-6.794-69.391-7.135-116.839-1.006c-56.43,7.29-101.68,8.007-134.489,2.131
								c-29.216-5.232-49.529-15.881-60.376-31.65c-27.021-39.285,7.063-102.536,34.451-153.359
								c16.764-31.109,31.242-57.976,24.202-67.923c-2.88-4.069-9.21-5.275-19.349-3.688c-8.81,1.379-16.681-0.517-23.393-5.637
								c-25.954-19.803-33.456-86.573-41.397-157.263c-10.205-90.829-21.77-193.776-74.492-222.422
								c-23.744-12.903-53.469-10.085-90.872,8.608l-0.335-0.671c37.639-18.812,67.59-21.622,91.565-8.596
								c53.065,28.833,64.654,131.987,74.879,222.998c7.923,70.526,15.407,137.141,41.107,156.749
								c6.635,5.063,14.101,6.86,22.822,5.493c10.45-1.638,17.016-0.33,20.078,3.996c7.309,10.326-6.576,36.091-24.154,68.711
								c-27.29,50.644-61.254,113.671-34.493,152.579c10.728,15.598,30.878,26.142,59.89,31.337
								c32.733,5.863,77.905,5.145,134.262-2.137c47.532-6.139,86.931-5.797,117.1,1.019c27.206,6.146,47.704,17.741,60.925,34.463
								c41.21,52.123,6.69,143.489-18.517,210.201c-14.154,37.462-25.334,67.052-16.557,74.32
								c5.655,4.685,19.917-0.076,43.591-14.55l0.391,0.641C652.852,739.862,640.414,745.242,632.743,745.243z"/>
						</g>
					</g>
					<g>
						<g>
							<path style="fill:#DE7C66;" d="M641.845,752.852c-2.705,0-4.841-0.657-6.443-1.958c-9.458-7.679,0.688-36.202,14.731-75.68
								c23.815-66.949,56.433-158.64,14.381-211.588c-13.361-16.824-33.763-28.687-60.637-35.259
								c-29.885-7.309-68.723-8.317-115.439-2.999c-55.721,6.346-100.51,6.273-133.123-0.211
								c-29.045-5.775-49.386-16.845-60.457-32.898c-27.67-40.122,5.038-103.458,31.319-154.35
								c16.079-31.137,29.966-58.027,22.755-68.179c-2.94-4.14-9.23-5.462-19.229-4.044c-8.547,1.215-16.259-0.742-22.913-5.814
								c-26.371-20.104-35.035-87.949-44.208-159.778c-11.837-92.686-25.253-197.738-79.142-226.611
								c-23.549-12.618-52.528-10.067-88.59,7.8l-0.333-0.672c36.293-17.983,65.496-20.532,89.277-7.789
								C238.023-198.121,251.466-92.865,263.326,0c9.153,71.668,17.798,139.362,43.919,159.276
								c6.579,5.016,13.893,6.869,22.353,5.668c10.304-1.464,16.828-0.039,19.946,4.352c7.475,10.525-5.841,36.311-22.701,68.958
								c-26.189,50.713-58.782,113.828-31.368,153.58c10.957,15.888,31.139,26.852,59.986,32.588
								c32.538,6.472,77.248,6.539,132.893,0.202c46.802-5.326,85.731-4.314,115.7,3.016c27.04,6.612,47.579,18.564,61.047,35.521
								c42.31,53.274,9.612,145.191-14.262,212.306c-13.416,37.714-24.012,67.502-14.966,74.847
								c5.759,4.672,19.769,0.096,42.829-14.002l0.391,0.641C661.61,747.639,649.467,752.852,641.845,752.852z"/>
						</g>
					</g>
					<g>
						<g>
							<path style="fill:#BC86A6;" d="M651.003,760.699c-2.747,0-4.929-0.665-6.586-1.983c-9.733-7.744-0.145-36.474,13.126-76.237
								c22.491-67.391,53.294-159.685,10.111-213.826c-13.611-17.065-34.062-29.285-60.782-36.319
								c-29.69-7.816-68.071-9.491-114.073-4.974c-55.029,5.402-99.372,4.547-131.802-2.549
								c-28.884-6.32-49.259-17.81-60.559-34.154c-28.336-40.983,3.005-104.433,28.189-155.417
								c15.399-31.177,28.699-58.102,21.315-68.464c-3-4.211-9.253-5.649-19.115-4.397c-20.444,2.591-35.26-12.578-46.625-47.753
								C274.1,83.354,267.907,39.966,261.352-5.971c-13.501-94.603-28.804-201.83-83.846-230.928
								c-23.333-12.335-51.569-10.035-86.323,7.029l-0.33-0.673c34.985-17.178,63.444-19.473,87.004-7.019
								c55.38,29.276,70.711,136.704,84.238,231.485c6.551,45.904,12.739,89.262,22.822,120.471
								c11.233,34.77,25.79,49.78,45.816,47.24c10.16-1.29,16.645,0.25,19.82,4.706c7.644,10.727-5.108,36.545-21.253,69.231
								c-25.096,50.807-56.329,114.039-28.244,154.658c11.188,16.183,31.41,27.57,60.102,33.848
								c32.352,7.078,76.617,7.93,131.568,2.536c46.089-4.526,84.559-2.845,114.338,4.994c26.88,7.076,47.463,19.383,61.177,36.578
								c43.437,54.458,12.56,146.977-9.986,214.53c-12.679,37.989-22.692,67.995-13.37,75.414
								c5.858,4.661,19.623,0.257,42.077-13.468l0.391,0.641C670.425,755.649,658.572,760.699,651.003,760.699z"/>
						</g>
					</g>
					<g>
						<g>
							<path style="fill:#AE0C9E;" d="M660.227,768.779c-2.786,0-5.013-0.672-6.723-2.005c-10.014-7.808-0.983-36.759,11.515-76.828
								c21.168-67.867,50.16-160.815,5.82-216.185c-29.207-36.474-87.645-51.386-173.677-44.313
								c-54.36,4.466-98.276,2.824-130.53-4.881c-28.734-6.865-49.151-18.781-60.683-35.418
								c-29.018-41.865,0.965-105.46,25.058-156.56c14.726-31.232,27.443-58.205,19.881-68.782
								c-3.062-4.282-9.278-5.836-19.007-4.751c-1.272,0.142-2.526,0.213-3.757,0.213c-18.332,0.001-32.162-15.784-43.302-49.241
								c-10.571-31.746-17.482-75.658-24.798-122.147c-15.2-96.583-32.429-206.052-88.608-235.372
								c-23.088-12.051-50.586-9.993-84.066,6.29l-0.328-0.675c33.708-16.394,61.427-18.448,84.741-6.281
								c56.515,29.495,73.774,139.163,89.002,235.92c7.312,46.458,14.218,90.34,24.769,122.027
								c11.758,35.312,26.46,50.724,46.265,48.519c10.023-1.12,16.466,0.537,19.7,5.06c7.818,10.935-4.375,36.796-19.813,69.538
								c-24.01,50.925-53.892,114.302-25.12,155.812c11.423,16.481,31.691,28.296,60.241,35.116
								c32.177,7.687,76.017,9.32,130.293,4.862c45.397-3.728,83.416-1.388,113.008,6.959c26.727,7.538,47.357,20.2,61.317,37.634
								c44.588,55.681,15.528,148.849-5.69,216.877c-11.941,38.284-21.373,68.524-11.77,76.013
								c5.958,4.646,19.477,0.409,41.33-12.949l0.391,0.641C679.303,763.889,667.737,768.779,660.227,768.779z"/>
						</g>
					</g>
					<g>
						<g>
							<path style="fill:#A69410;" d="M669.518,777.102c-2.821,0-5.092-0.679-6.854-2.024c-10.301-7.868-1.829-37.059,9.896-77.46
								c19.847-68.381,47.027-162.032,1.505-218.67c-29.722-36.979-87.777-52.896-172.545-47.319
								c-53.706,3.536-97.212,1.111-129.302-7.204c-28.594-7.41-49.059-19.754-60.826-36.69
								c-29.718-42.772-1.082-106.54,21.927-157.78c14.056-31.302,26.196-58.336,18.453-69.133
								c-3.123-4.353-9.307-6.023-18.902-5.104c-1.065,0.102-2.121,0.154-3.159,0.154c-18.446,0.002-32.601-16.157-44.357-50.473
								C274.31,73.163,266.677,28.71,258.596-18.353c-16.933-98.62-36.125-210.398-93.422-239.936
								c-22.821-11.765-49.586-9.938-81.824,5.587l-0.325-0.676c32.014-15.417,59.768-17.292,82.493-5.578
								c57.629,29.709,76.855,141.684,93.818,240.476c8.075,47.032,15.703,91.456,26.728,123.635
								c12.287,35.865,27.141,51.691,46.735,49.816c9.889-0.948,16.292,0.823,19.583,5.413c7.995,11.148-3.643,37.065-18.378,69.877
								c-22.932,51.067-51.471,114.622-21.996,157.045c11.662,16.784,31.983,29.028,60.399,36.392
								c32.014,8.296,75.435,10.714,129.065,7.183c44.711-2.943,82.297,0.054,111.712,8.906c26.58,7.999,47.26,21.017,61.467,38.691
								c45.767,56.941,18.523,150.81-1.369,219.349c-11.204,38.606-20.055,69.099-10.162,76.655
								c6.054,4.624,19.328,0.553,40.588-12.444l0.391,0.641C688.246,772.368,676.966,777.102,669.518,777.102z"/>
						</g>
					</g>
					<g>
						<g>
							<path style="fill:#9E4E94;" d="M678.883,785.669c-2.853,0-5.164-0.683-6.978-2.04c-10.593-7.926-2.68-37.374,8.273-78.131
								c18.524-68.931,43.894-163.335-2.836-221.278c-30.232-37.486-87.92-54.415-171.459-50.309
								c-53.076,2.603-96.182-0.598-128.122-9.525c-28.464-7.956-48.984-20.732-60.99-37.972
								c-30.434-43.703-3.138-107.675,18.795-159.076c13.943-32.678,24.956-58.489,17.028-69.511
								c-3.185-4.428-9.337-6.215-18.806-5.456c-0.865,0.069-1.724,0.104-2.572,0.104c-18.549,0.002-33.032-16.541-45.419-51.738
								c-11.522-32.738-19.879-77.75-28.728-125.404c-18.701-100.72-39.897-214.878-98.293-244.632
								c-22.532-11.482-48.568-9.873-79.6,4.916l-0.322-0.677c30.82-14.69,57.825-16.34,80.262-4.908
								c58.725,29.921,79.957,144.273,98.69,245.163c8.843,47.625,17.195,92.609,28.697,125.292
								c12.821,36.436,27.833,52.694,47.224,51.136c9.758-0.779,16.124,1.108,19.474,5.766c8.175,11.365-2.911,37.348-16.947,70.243
								c-21.86,51.232-49.065,114.992-18.869,158.354c11.903,17.093,32.284,29.77,60.576,37.678
								c31.861,8.906,74.887,12.104,127.883,9.498c44.046-2.161,81.21,1.483,110.455,10.837
								c26.439,8.458,47.173,21.832,61.624,39.751c46.97,58.24,21.543,152.857,2.977,221.944
								c-10.468,38.949-18.735,69.714-8.549,77.335c6.142,4.593,19.176,0.685,39.849-11.953l0.391,0.641
								C697.264,781.087,686.264,785.669,678.883,785.669z"/>
						</g>
					</g>
					<g>
						<g>
							<path style="fill:#8C52D4;" d="M688.324,794.486c-2.882,0-5.232-0.688-7.096-2.054c-10.893-7.981-3.539-37.706,6.64-78.846
								c17.198-69.516,40.754-164.721-7.209-224.011c-30.738-37.999-88.065-55.932-170.411-53.284
								c-52.471,1.678-95.188-2.3-126.984-11.84c-28.344-8.504-48.925-21.714-61.172-39.263
								c-31.166-44.657-5.204-108.861,15.656-160.45c13.255-32.781,23.725-58.673,15.608-69.927
								c-3.247-4.501-9.367-6.396-18.716-5.809c-19.605,1.251-34.991-15.59-48.482-52.967
								c-12.003-33.253-21.089-78.841-30.708-127.106c-20.505-102.883-43.746-219.494-103.218-249.462
								c-21.915-11.043-47.953-9.604-77.396,4.276l-0.319-0.679c29.661-13.982,55.922-15.42,78.052-4.267
								c59.799,30.133,83.078,146.934,103.616,249.985c9.614,48.236,18.694,93.797,30.678,126.998
								c13.362,37.017,28.532,53.674,47.729,52.474c9.625-0.615,15.963,1.391,19.372,6.118c8.36,11.59-2.178,37.652-15.52,70.647
								c-20.793,51.421-46.67,115.416-15.736,159.74c12.148,17.406,32.595,30.519,60.773,38.973
								c31.719,9.517,74.358,13.492,126.746,11.809c43.403-1.394,80.149,2.898,109.228,12.752
								c26.306,8.914,47.095,22.646,61.79,40.811c21.34,26.381,30.533,62.048,28.104,109.038
								c-2.074,40.133-12.431,81.991-20.752,115.624c-9.729,39.319-17.412,70.377-6.924,78.06
								c6.229,4.565,19.023,0.81,39.119-11.475l0.391,0.641C706.358,790.054,695.635,794.485,688.324,794.486z"/>
						</g>
					</g>
					<g>
						<g>
							<path style="fill:#92064E;" d="M697.846,803.553c-2.907,0-5.295-0.691-7.208-2.063c-11.198-8.035-4.405-38.055,4.996-79.604
								c15.871-70.137,37.606-166.192-11.611-226.869c-31.242-38.517-88.23-57.439-169.403-56.245
								c-51.891,0.763-94.23-3.997-125.897-14.151c-28.234-9.053-48.883-22.701-61.375-40.564
								c-31.916-45.641-7.281-110.106,12.514-161.906c12.571-32.896,22.5-58.879,14.19-70.368
								c-3.309-4.574-9.401-6.587-18.629-6.159c-19.38,0.905-34.957-16.356-48.993-54.322
								c-12.489-33.782-22.308-79.964-32.702-128.858c-22.346-105.107-47.672-224.239-108.198-254.422
								c-21.589-10.765-46.895-9.533-75.214,3.666l-0.316-0.68c28.536-13.3,54.062-14.53,75.865-3.657
								c60.849,30.345,86.216,149.664,108.597,254.937c10.389,48.866,20.202,95.023,32.672,128.754
								c13.907,37.614,29.238,54.715,48.254,53.834c9.499-0.441,15.804,1.673,19.272,6.468c8.548,11.818-1.446,37.968-14.097,71.075
								c-19.731,51.634-44.288,115.894-12.6,161.209c12.396,17.726,32.916,31.278,60.99,40.28
								c31.589,10.13,73.88,14.881,125.657,14.115c42.785-0.635,79.117,4.3,108.037,14.65c26.177,9.37,47.024,23.458,61.961,41.872
								c21.893,26.99,31.798,63.221,30.283,110.762c-1.293,40.602-10.847,82.821-18.523,116.746
								c-8.986,39.715-16.085,71.084-5.29,78.828c6.309,4.526,18.866,0.927,38.392-11.011l0.391,0.641
								C715.53,799.267,705.081,803.553,697.846,803.553z"/>
						</g>
					</g>
					<g>
						<g>
							<path style="fill:#A4640E;" d="M707.451,812.878c-2.929,0-5.351-0.694-7.311-2.07c-11.509-8.084-5.279-38.417,3.342-80.4
								c14.539-70.794,34.45-167.751-16.047-229.859c-31.743-39.042-88.416-58.958-168.444-59.194
								c-51.298-0.152-93.303-5.69-124.849-16.46c-28.133-9.604-48.857-23.693-61.596-41.877
								c-32.682-46.649-9.367-111.408,9.367-163.442c11.89-33.025,21.282-59.111,12.777-70.841
								c-3.371-4.648-9.435-6.777-18.548-6.508c-0.297,0.009-0.596,0.013-0.891,0.013c-18.799,0.002-34.272-17.742-48.635-55.716
								C273.635,52.197,263.08,5.401,251.905-44.144c-24.223-107.394-51.677-229.117-113.226-259.51
								c-21.246-10.49-45.824-9.452-73.052,3.087l-0.313-0.682c27.443-12.639,52.237-13.674,73.698-3.078
								c61.869,30.552,89.366,152.46,113.625,260.018c11.169,49.518,21.718,96.29,34.682,130.565
								c14.458,38.229,29.993,55.81,48.801,55.218c9.385-0.272,15.65,1.954,19.178,6.818c8.738,12.051-0.713,38.301-12.678,71.535
								c-18.675,51.872-41.917,116.426-9.458,162.757c12.646,18.051,33.245,32.046,61.224,41.598
								c31.468,10.743,73.393,16.268,124.609,16.42c42.154,0.125,78.115,5.688,106.884,16.534
								c26.056,9.823,46.963,24.27,62.141,42.938c22.455,27.618,33.082,64.435,32.487,112.554
								c-0.508,41.093-9.258,83.696-16.287,117.93c-8.242,40.134-14.752,71.834-3.646,79.635
								c6.383,4.483,18.704,1.028,37.667-10.563l0.391,0.641C724.785,808.734,714.606,812.878,707.451,812.878z"/>
						</g>
					</g>
				</g>
			</g>
		</g>
	</g>
</g>
<g id="Layer_1">
</g>
</svg>
