<svg width="1440" height="1024" viewBox="0 0 1440 1024" fill="none" xmlns="http://www.w3.org/2000/svg">
<g clip-path="url(#clip0_261_1614)">
<mask id="mask0_261_1614" style="mask-type:luminance" maskUnits="userSpaceOnUse" x="-135" y="-25" width="1677" height="1050">
<path d="M1542 -24.7517H-135V1024.25H1542V-24.7517Z" fill="white"/>
</mask>
<g mask="url(#mask0_261_1614)">
<path d="M790.304 1300.37C786.868 1300.37 784.973 1299.37 783.799 1297.99C773.439 1285.79 824.016 1226.92 894.018 1145.44C1013.31 1006.59 1176.68 816.429 1128.27 747.556C1111.15 723.19 1067.66 715.863 999.029 725.768C921.879 736.908 810.602 770.189 668.287 824.687C446.208 909.733 297.989 951.897 220.205 951.901C189.011 951.903 169.153 945.124 160.391 931.609C126.147 878.802 269.834 734.838 385.291 619.16C456.421 547.893 517.852 486.344 509.11 473.053C505.461 467.502 488.67 470.63 459.203 482.35C424.244 496.257 400.514 496.807 386.656 484.036C353.038 453.057 385.568 346.223 420.007 233.116C461.037 98.3611 507.542 -54.3733 448.091 -102.164C403.568 -137.949 305.999 -112.509 149.809 -24.395L149.038 -25.765C305.854 -114.233 403.994 -139.623 449.076 -103.387C476.071 -81.6872 484.096 -37.4467 473.608 31.8629C464.395 92.7363 442.594 164.337 421.512 233.577C387.222 346.198 354.831 452.573 387.721 482.88C401.089 495.202 424.279 494.549 458.622 480.887C489.733 468.515 506.19 465.754 510.423 472.189C519.868 486.552 460.97 545.564 386.4 620.274C271.345 735.549 128.155 879.014 161.707 930.753C175.647 952.249 220.482 955.906 294.962 941.631C379.411 925.441 504.826 885.602 667.723 823.218C810.145 768.678 921.537 735.368 998.801 724.213C1068.07 714.214 1112.06 721.763 1129.56 746.651C1178.67 816.527 1014.83 1007.23 895.206 1146.47C830.975 1221.23 775.502 1285.8 784.996 1296.97C792.073 1305.31 835.746 1284.74 918.525 1234.1L919.344 1235.45C833.618 1287.89 802.414 1300.37 790.304 1300.37Z" fill="#F05E82"/>
<path d="M808.281 1306.78C805.118 1306.78 802.896 1306 801.567 1304.45C790.926 1292.08 840.067 1233.48 908.082 1152.39C1023.98 1014.21 1182.7 824.951 1133.08 754.687C1115.56 729.882 1072.27 721.778 1004.41 730.596C928.149 740.509 818.532 772.111 678.605 824.527C372.4 939.229 208.351 971.603 177.077 923.484C142.072 869.622 281.999 726.794 394.431 612.029C463.687 541.337 523.499 480.285 514.55 466.713C510.813 461.045 494.223 463.904 465.245 475.204C431.164 488.491 407.784 488.749 393.769 476.003C359.258 444.615 389.717 336.935 421.967 222.932C460.48 86.7844 504.132 -67.5256 442.76 -115.931C397.529 -151.609 301.615 -127.39 149.547 -41.8901L148.778 -43.2622C301.46 -129.108 397.94 -153.286 443.735 -117.166C471.586 -95.2003 480.723 -50.4752 471.674 19.5666C463.725 81.0862 443.265 153.415 423.481 223.36C391.368 336.881 361.036 444.105 394.827 474.839C408.361 487.148 431.208 486.785 464.674 473.737C495.278 461.806 511.542 459.297 515.863 465.847C525.512 480.478 468.163 539.017 395.555 613.131C283.514 727.493 144.078 869.821 178.396 922.628C192.644 944.554 237.179 949.029 310.759 935.929C394.177 921.079 517.756 883.101 678.056 823.052C818.096 770.594 927.83 738.962 1004.21 729.035C1072.7 720.137 1116.48 728.46 1134.37 753.779C1184.69 825.031 1025.51 1014.82 909.287 1153.4C846.884 1227.8 792.991 1292.06 802.764 1303.43C810.021 1311.87 852.944 1291.89 933.964 1242.32L934.784 1243.66C864.559 1286.62 824.328 1306.78 808.281 1306.78Z" fill="#E60848"/>
<path d="M826.292 1313.7C823.014 1313.7 820.699 1312.89 819.301 1311.29C808.371 1298.73 856.097 1240.39 922.152 1159.64C1034.7 1022.06 1188.84 833.634 1137.96 761.952C1120.04 736.705 1076.92 727.824 1009.81 735.557C934.415 744.247 826.42 774.183 688.826 824.539C387.442 934.836 225.413 964.615 193.472 915.576C157.685 860.633 293.916 718.874 403.378 604.967C470.785 534.825 528.998 474.249 519.839 460.396C516.016 454.614 499.625 457.203 471.127 468.083C437.912 480.761 414.882 480.74 400.718 468.022C365.295 436.223 393.685 327.637 423.741 212.675C459.723 75.0396 500.508 -80.9572 437.165 -129.977C391.239 -165.517 296.968 -142.487 148.971 -59.5681L148.204 -60.9402C296.813 -144.201 391.647 -167.189 438.128 -131.221C466.857 -108.989 477.128 -63.7557 469.531 7.06226C462.859 69.268 443.746 142.375 425.263 213.073C395.333 327.557 367.063 435.69 401.77 466.849C415.455 479.135 437.962 479.056 470.569 466.61C500.675 455.115 516.749 452.866 521.154 459.527C531.008 474.43 475.187 532.517 404.514 606.058C295.438 719.56 159.689 860.82 194.793 914.714C209.36 937.076 253.614 942.369 326.318 930.442C408.74 916.925 530.526 880.795 688.29 823.056C825.999 772.66 934.117 742.692 1009.64 733.99C1077.37 726.185 1120.97 735.284 1139.25 761.039C1190.82 833.699 1036.24 1022.66 923.372 1160.64C862.771 1234.72 810.434 1298.7 820.492 1310.25C827.948 1318.8 870.114 1299.39 949.422 1250.87L950.241 1252.22C881.862 1294.05 842.419 1313.7 826.292 1313.7Z" fill="#CC888C"/>
<path d="M844.284 1321.02C840.884 1321.02 838.475 1320.18 837.006 1318.51C825.776 1305.77 872.103 1247.65 936.228 1167.21C1045.47 1030.17 1195.09 842.484 1142.92 769.35C1124.58 743.653 1081.64 733.996 1015.24 740.653C940.678 748.128 834.268 776.414 698.966 824.726C498.049 896.465 359.772 932.098 281.315 932.102C243.924 932.104 220.13 924.014 209.598 907.885C173.012 851.843 305.586 711.105 412.111 598.021C477.7 528.392 534.345 468.259 524.964 454.119C521.053 448.219 504.851 450.538 476.814 461.004C444.458 473.085 421.779 472.791 407.478 460.113C371.135 427.9 397.45 318.349 425.309 202.365C458.75 63.1397 496.655 -94.6634 431.285 -144.294C384.702 -179.658 292.069 -157.786 148.086 -77.4158L147.321 -78.79C291.903 -159.496 385.103 -181.336 432.235 -145.548C461.865 -123.051 473.29 -77.2878 467.158 -5.6432C461.773 57.2905 444.014 131.228 426.839 202.732C399.093 318.244 372.886 427.348 408.522 458.936C422.349 471.192 444.51 471.385 476.266 459.53C505.891 448.467 521.78 446.47 526.277 453.248C536.345 468.431 482.027 526.095 413.255 599.101C307.11 711.785 175.006 852.023 210.917 907.025C225.804 929.828 269.79 935.939 341.658 925.183C423.114 912.991 543.156 878.695 698.442 823.245C833.864 774.89 940.399 746.576 1015.09 739.09C1082.09 732.368 1125.52 742.248 1144.2 768.437C1197.06 842.536 1047.02 1030.76 937.462 1168.2C878.635 1241.99 827.833 1305.72 838.192 1317.47C845.829 1326.13 887.282 1307.29 964.894 1259.8L965.714 1261.15C899.141 1301.87 860.478 1321.02 844.284 1321.02Z" fill="#E6168E"/>
<path d="M862.264 1328.72C858.742 1328.72 856.239 1327.85 854.696 1326.12C843.156 1313.21 888.104 1255.28 950.315 1175.12C1056.3 1038.55 1201.45 851.51 1147.94 776.894C1129.19 750.743 1086.38 740.311 1020.69 745.898C946.933 752.165 842.07 778.814 709.011 825.106C416.945 926.714 258.768 951.351 225.44 900.42C188.03 843.258 317.008 703.475 420.643 591.156C484.438 522.016 539.533 462.303 529.933 447.867C525.931 441.848 509.916 443.897 482.333 453.957C450.82 465.448 428.491 464.894 414.065 452.264C376.789 419.632 401.026 309.053 426.684 191.978C457.568 51.0617 492.575 -108.659 425.129 -158.896C377.921 -194.06 286.914 -173.305 146.902 -95.4458L146.139 -96.82C286.745 -175.012 378.309 -195.732 426.066 -160.161C494.326 -109.318 459.205 50.9316 428.216 192.314C402.661 308.921 378.521 419.059 415.096 451.079C429.055 463.298 450.873 463.755 481.792 452.476C510.945 441.846 526.654 440.102 531.239 446.994C541.525 462.463 488.689 519.725 421.796 592.224C318.532 704.142 190.017 843.424 226.754 899.558C241.973 922.816 285.72 929.746 356.764 920.148C437.287 909.276 555.624 876.799 708.491 823.617C841.672 777.284 946.665 750.606 1020.55 744.329C1086.83 738.7 1130.12 749.345 1149.22 775.975C1203.4 851.547 1057.84 1039.12 951.551 1176.08C892.131 1252.66 845.198 1313.13 855.864 1325.07C863.712 1333.85 904.44 1315.54 980.383 1269.08L981.203 1270.42C916.416 1310.06 878.518 1328.72 862.264 1328.72Z" fill="#B86C08"/>
<path d="M880.237 1336.83C876.594 1336.83 873.992 1335.92 872.37 1334.13C860.507 1321.03 904.097 1263.28 964.425 1183.34C1067.18 1047.19 1207.92 860.709 1153.04 784.577C1133.86 757.972 1091.17 746.777 1026.17 751.288C953.193 756.357 849.844 781.384 718.985 825.671C431.413 922.995 275.073 945.076 241.028 893.18C202.775 834.87 328.2 695.985 428.982 584.386C491.01 515.704 544.579 456.383 534.748 441.644C530.652 435.508 514.817 437.289 487.679 446.94C456.998 457.853 435.019 457.046 420.479 444.472C382.256 411.418 404.407 299.742 427.858 181.509C456.164 38.7967 488.247 -122.957 418.674 -173.794C370.884 -208.717 281.494 -189.048 145.403 -113.669L144.642 -115.045C281.326 -190.752 371.263 -210.385 419.603 -175.063C489.985 -123.633 457.799 38.6435 429.401 181.817C406.042 299.589 383.979 410.827 421.509 443.283C435.583 455.455 457.057 456.164 487.153 445.458C515.448 435.394 531.446 433.861 536.056 440.774C546.569 456.532 495.194 513.419 430.149 585.441C329.733 696.637 204.758 835.021 242.344 892.318C257.9 916.031 301.414 923.781 371.676 915.345C451.296 905.787 567.978 875.116 718.482 824.181C849.466 779.85 952.952 754.798 1026.06 749.721C1091.65 745.156 1134.8 756.581 1154.32 783.66C1209.88 860.732 1068.74 1047.75 965.68 1184.3C908.063 1260.64 862.551 1320.95 873.538 1333.08C881.585 1341.97 921.615 1324.19 995.921 1278.73L996.74 1280.08C933.689 1318.64 896.55 1336.83 880.237 1336.83Z" fill="#F2002A"/>
<path d="M898.21 1345.32C894.439 1345.32 891.737 1344.38 890.037 1342.53C877.843 1329.25 920.087 1271.64 978.556 1191.9C1078.14 1056.08 1214.52 870.077 1158.22 792.392C1138.61 765.328 1096.02 753.353 1031.67 756.81C959.457 760.685 857.581 784.099 728.88 826.401C445.691 919.481 291.128 939.019 256.349 886.141C217.231 826.657 339.155 688.612 437.123 577.689C497.405 509.435 549.468 450.487 539.402 435.443C535.211 429.182 519.546 430.697 492.842 439.951C462.987 450.299 441.358 449.245 426.72 436.737C387.545 403.257 407.602 290.427 428.837 170.973C454.545 26.3536 483.685 -137.559 411.935 -188.998C363.602 -223.642 275.823 -205.039 143.592 -132.104L142.833 -133.483C275.649 -206.741 363.975 -225.312 412.851 -190.275C485.406 -138.26 456.174 26.1731 430.386 171.25C409.233 290.248 389.251 402.645 427.741 435.541C441.915 447.655 463.041 448.612 492.326 438.464C520.173 428.813 535.999 427.537 540.705 434.568C551.449 450.62 501.516 507.154 438.299 578.73C340.686 689.25 219.204 826.797 257.661 885.273C273.561 909.452 316.87 918.027 386.371 910.742C465.119 902.495 580.19 873.616 728.387 824.905C857.22 782.559 959.232 759.122 1031.59 755.239C1096.5 751.758 1139.55 763.943 1159.5 791.469C1216.47 870.085 1079.69 1056.62 979.824 1192.83C923.982 1268.99 879.877 1329.14 891.196 1341.47C899.453 1350.45 938.798 1333.21 1011.48 1288.75L1012.3 1290.09C950.963 1327.61 914.568 1345.32 898.21 1345.32Z" fill="#F82888"/>
<path d="M916.185 1354.22C912.291 1354.22 909.488 1353.24 907.702 1351.33C895.166 1337.87 936.079 1280.37 992.707 1200.79C1089.15 1065.25 1221.23 879.633 1163.47 800.362C1143.41 772.835 1100.94 760.087 1037.2 762.493C965.718 765.183 865.286 787 738.7 827.334C592.642 873.872 479.025 900.991 401.003 907.944C331.615 914.129 288.011 904.497 271.412 879.323C231.403 818.64 349.881 681.37 445.078 571.072C503.639 503.221 554.215 444.623 543.908 429.266C539.621 422.88 524.124 424.132 497.849 432.988C468.799 442.779 447.518 441.491 432.799 429.052C392.66 395.138 410.612 281.086 429.618 160.34C452.698 13.7172 478.859 -152.472 404.889 -204.5C356.051 -238.851 269.884 -221.267 141.464 -150.743L140.707 -152.121C269.708 -222.964 356.417 -240.516 405.795 -205.788C480.566 -153.195 454.325 13.5074 431.174 160.586C412.236 280.881 394.351 394.506 433.815 427.85C448.08 439.903 468.864 441.095 497.35 431.496C524.765 422.259 540.42 421.241 545.216 428.389C556.192 444.741 507.685 500.944 446.269 572.1C351.418 681.997 233.372 818.766 272.725 878.454C288.979 903.11 332.088 912.507 400.864 906.374C478.771 899.432 592.275 872.334 738.224 825.832C864.945 785.454 965.519 763.614 1037.14 760.918C1101.47 758.507 1144.36 771.458 1164.74 799.433C1223.17 879.623 1090.71 1065.78 993.99 1201.7C939.907 1277.7 897.191 1337.73 908.853 1350.25C917.328 1359.34 955.995 1342.62 1027.09 1299.12L1027.91 1300.47C968.242 1336.97 932.582 1354.22 916.185 1354.22Z" fill="#EA56B0"/>
<path d="M934.176 1363.52C930.157 1363.52 927.245 1362.52 925.375 1360.54C912.484 1346.9 952.084 1289.48 1006.9 1210.02C1100.23 1074.7 1228.06 889.368 1168.79 808.471C1148.28 780.478 1105.87 766.946 1042.76 768.316C971.983 769.828 872.961 790.059 748.444 828.446C604.582 872.796 492.489 898.146 415.278 903.796C346.611 908.814 303.185 898.366 286.233 872.722C245.312 810.815 360.38 674.268 452.837 564.552C509.704 497.069 558.815 438.789 548.26 423.113C543.877 416.601 528.539 417.591 502.673 426.05C474.418 435.296 453.495 433.785 438.706 421.424C397.603 387.075 413.44 271.746 430.208 149.645C450.636 0.896469 473.789 -167.699 397.55 -220.319C348.255 -254.338 263.692 -237.749 139.026 -169.597L138.273 -170.978C263.51 -239.442 348.607 -256.006 398.443 -221.613C475.478 -168.444 452.254 0.661514 431.765 149.859C415.058 271.515 399.277 386.427 439.714 420.217C454.053 432.199 474.485 433.62 502.185 424.554C529.174 415.724 544.671 414.966 549.564 422.232C560.785 438.892 513.678 494.793 454.04 565.563C361.92 674.877 247.274 810.926 287.547 871.85C304.162 896.982 347.096 907.203 415.165 902.225C492.259 896.585 604.234 871.254 747.982 826.94C872.64 788.511 971.805 768.255 1042.73 766.74C1106.41 765.378 1149.23 779.108 1170.06 807.538C1229.99 889.337 1101.8 1075.2 1008.19 1210.91C955.847 1286.8 914.502 1346.74 926.52 1359.45C935.192 1368.65 973.216 1352.42 1042.73 1309.89L1043.55 1311.24C985.538 1346.73 950.606 1363.52 934.176 1363.52Z" fill="#845A0C"/>
<path d="M951.979 1373.13C947.917 1373.13 944.961 1372.13 943.066 1370.15C929.807 1356.33 968.11 1298.98 1021.12 1219.59C1111.39 1084.41 1235.02 899.285 1174.19 816.723C1153.45 788.555 1111.76 774.278 1050.3 774.278C1049.65 774.278 1049 774.28 1048.35 774.282C978.253 774.624 880.606 793.282 758.118 829.737C616.399 871.915 505.786 895.511 429.355 899.862C361.375 903.723 318.121 892.45 300.806 866.33C258.946 803.174 370.655 667.286 460.415 558.102C515.609 490.962 563.276 432.977 552.465 416.978C547.979 410.336 532.794 411.066 507.339 419.137C479.866 427.852 459.297 426.119 444.452 413.844C402.372 379.05 416.081 262.372 430.598 138.842C448.338 -12.1321 468.445 -183.251 389.899 -236.452C340.199 -270.117 257.234 -254.483 136.27 -188.664L135.519 -190.047C257.051 -256.174 340.547 -271.776 390.779 -237.757C470.118 -184.021 449.952 -12.3965 432.159 139.025C417.697 262.116 404.034 378.381 445.454 412.629C459.853 424.535 479.941 426.174 506.863 417.635C533.433 409.207 548.776 408.706 553.765 416.095C565.234 433.068 519.512 488.686 461.626 559.101C372.196 667.886 260.9 803.272 302.114 865.457C319.098 891.08 361.876 902.132 429.262 898.289C505.572 893.944 616.063 870.371 757.667 828.226C880.3 791.729 978.094 773.049 1048.34 772.707C1111.42 772.493 1154.17 786.895 1175.46 815.785C1236.94 899.237 1112.96 1084.9 1022.43 1220.46C971.803 1296.27 931.815 1356.16 944.198 1369.06C953.094 1378.33 990.458 1362.63 1058.43 1321.04L1059.25 1322.38C1003.34 1356.6 968.512 1373.12 951.979 1373.13Z" fill="#AE6E02"/>
<path d="M970.03 1383.25C965.844 1383.25 962.779 1382.23 960.794 1380.19C947.154 1366.19 984.173 1308.86 1035.41 1229.5C1122.64 1094.41 1242.1 909.391 1179.67 825.119C1158.24 796.183 1115.95 781.136 1053.97 780.402C984.53 779.588 888.236 796.67 767.735 831.214C628.106 871.239 518.936 893.084 443.257 896.14C375.93 898.872 332.837 886.746 315.155 860.139C272.333 795.701 380.726 660.417 467.821 551.714C521.359 484.892 567.598 427.185 556.528 410.854C551.939 404.084 536.907 404.552 511.848 412.237C485.144 420.431 464.924 418.489 450.04 406.306C406.983 371.061 418.553 252.971 430.799 127.947C445.819 -25.3685 462.84 -199.142 381.948 -252.918C331.898 -286.19 250.532 -271.489 133.207 -207.966L132.458 -209.35C250.339 -273.176 332.231 -287.858 382.818 -254.229C464.496 -199.93 447.424 -25.658 432.363 128.098C420.158 252.69 408.629 370.373 451.034 405.085C465.479 416.909 485.22 418.757 511.385 410.73C537.544 402.705 552.736 402.458 557.827 409.967C569.55 427.258 525.197 482.614 469.047 552.696C382.273 660.999 274.278 795.782 316.463 859.264C333.822 885.384 376.464 897.244 443.194 894.565C518.747 891.512 627.794 869.689 767.302 829.697C887.949 795.115 984.324 778.006 1053.99 778.824C1116.48 779.567 1159.19 794.826 1180.94 824.179C1244.02 909.326 1124.21 1094.87 1036.73 1230.35C987.802 1306.13 949.155 1365.99 961.922 1379.09C971.04 1388.45 1007.77 1373.23 1074.22 1332.57L1075.04 1333.92C1020.68 1367.18 986.584 1383.25 970.03 1383.25Z" fill="#8E7A08"/>
<path d="M988.098 1393.79C983.783 1393.79 980.614 1392.73 978.532 1390.63C964.502 1376.46 1000.25 1319.13 1049.73 1239.77C1133.96 1104.69 1249.31 919.686 1185.23 833.666C1163.32 804.252 1121.06 788.442 1059.63 786.673C990.846 784.676 895.846 800.236 777.299 832.877C639.707 870.769 531.935 890.876 456.975 892.639C390.308 894.227 347.326 881.263 329.265 854.161C285.453 788.414 390.572 653.672 475.036 545.407C526.943 478.873 571.772 421.411 560.435 404.742C555.742 397.846 540.858 398.05 516.181 405.353C490.228 413.036 470.366 410.896 455.457 398.807C411.425 363.104 420.835 243.538 430.799 116.954C443.06 -38.8188 456.956 -215.374 373.682 -269.72C323.322 -302.584 243.558 -288.777 129.819 -227.513L129.075 -228.898C243.369 -290.459 323.662 -304.243 374.542 -271.038C458.597 -216.182 444.661 -39.1314 432.367 117.077C422.437 243.238 413.058 362.403 456.449 397.586C470.925 409.325 490.318 411.37 515.737 403.847C541.496 396.22 556.543 396.227 561.735 403.859C573.719 421.476 530.717 476.595 476.275 546.379C392.123 654.245 287.392 788.488 330.575 853.291C348.318 879.914 390.855 892.622 456.939 891.069C531.769 889.305 639.414 869.217 776.881 831.362C895.58 798.678 990.741 783.096 1059.67 785.099C1121.61 786.887 1164.27 802.907 1186.49 832.726C1251.21 919.606 1135.53 1105.14 1051.06 1240.6C1003.81 1316.38 966.491 1376.24 979.65 1389.53C988.978 1398.96 1025.09 1384.24 1090.04 1344.5L1090.86 1345.85C1038.05 1378.16 1004.66 1393.79 988.098 1393.79Z" fill="#CE4A14"/>
<path d="M1006.22 1404.76C1001.78 1404.76 998.497 1403.67 996.321 1401.5C981.884 1387.15 1016.38 1329.78 1064.12 1250.38C1145.37 1115.24 1256.65 930.163 1190.86 842.354C1168.46 812.464 1126.23 795.887 1065.32 793.089C997.149 789.969 903.438 803.967 786.805 834.729C651.203 870.498 544.791 888.877 470.529 889.351C404.407 889.718 361.61 875.993 343.165 848.39C298.335 781.302 400.219 647.047 482.082 539.17C532.379 472.892 575.815 415.652 564.202 398.641C559.402 391.613 544.653 391.556 520.357 398.482C495.145 405.67 475.636 403.335 460.717 391.347C415.704 355.173 422.938 234.068 430.598 105.851C440.056 -52.4894 450.776 -231.954 365.092 -286.861C314.495 -319.284 236.321 -306.345 126.113 -247.299L125.371 -248.686C236.129 -308.026 314.818 -320.943 365.941 -288.187C452.401 -232.781 441.651 -52.8272 432.168 105.943C424.533 233.743 417.322 354.455 461.7 390.119C476.191 401.765 495.238 404.008 519.925 396.969C545.292 389.737 560.2 389.993 565.5 397.756C577.75 415.704 536.083 470.611 483.333 540.122C401.77 647.6 300.263 781.361 344.469 847.517C362.602 874.654 404.996 888.239 470.517 887.78C544.648 887.303 650.928 868.946 786.4 833.211C903.187 802.403 997.049 788.376 1065.39 791.519C1126.79 794.341 1169.42 811.127 1192.11 841.41C1258.53 930.069 1146.94 1115.67 1065.46 1251.19C1019.87 1327.02 983.863 1386.91 997.426 1400.39C1007 1409.9 1042.5 1395.64 1105.95 1356.81L1106.77 1358.16C1055.46 1389.55 1022.79 1404.75 1006.22 1404.76Z" fill="#982E1A"/>
<path d="M1024.39 1416.15C1019.83 1416.15 1016.43 1415.02 1014.16 1412.8C999.304 1398.28 1032.55 1340.84 1078.57 1261.35C1156.87 1126.09 1264.11 940.838 1196.57 851.188C1173.69 820.818 1131.46 803.482 1071.06 799.66C1003.47 795.375 911.022 807.867 796.267 836.767C662.602 870.429 557.561 887.081 483.912 886.275C418.433 885.554 375.68 870.933 356.841 842.818C310.967 774.358 409.656 640.526 488.953 532.993C537.657 466.944 579.721 409.904 567.827 392.541C562.85 385.275 548.639 384.971 524.375 391.611C499.885 398.314 480.729 395.797 465.815 383.911C419.827 347.259 424.869 224.547 430.206 94.6308C436.819 -66.3928 444.318 -248.898 356.195 -304.358C305.405 -336.321 228.831 -324.214 122.093 -267.346L121.353 -268.734C228.637 -325.892 305.728 -337.979 357.03 -305.691C445.923 -249.745 438.406 -66.7558 431.774 94.6937C426.453 224.201 421.429 346.527 466.791 382.68C481.287 394.232 499.986 396.657 523.956 390.094C548.941 383.255 563.716 383.765 569.118 391.653C581.645 409.939 541.296 464.655 490.213 533.929C411.207 641.065 312.883 774.402 358.141 841.943C376.676 869.603 418.995 883.989 483.924 884.704C557.458 885.537 662.344 868.872 795.877 835.246C910.792 806.306 1003.4 793.814 1071.15 798.092C1132.03 801.946 1174.65 819.492 1197.82 850.242C1265.99 940.725 1158.45 1126.5 1079.93 1262.14C1035.98 1338.05 1001.27 1398.01 1015.25 1411.68C1025.05 1421.25 1059.95 1407.47 1121.95 1369.54L1122.76 1370.88C1072.93 1401.37 1040.95 1416.15 1024.39 1416.15Z" fill="#D85602"/>
<path d="M1042.62 1427.97C1037.94 1427.97 1034.43 1426.82 1032.06 1424.53C1016.77 1409.84 1048.78 1352.31 1093.09 1272.69C1168.47 1137.23 1271.7 951.712 1202.35 860.174C1178.98 829.321 1136.74 811.224 1076.82 806.382C1009.82 800.971 918.592 811.933 805.671 838.989C673.897 870.557 570.067 885.503 497.133 883.407C432.218 881.542 389.549 866.078 370.307 837.447C323.362 767.583 418.894 634.121 495.655 526.882C542.787 461.036 583.492 404.17 571.31 386.45C566.223 379.048 552.134 378.497 528.241 384.753C504.453 390.984 485.651 388.29 470.76 376.512C423.799 339.373 426.627 214.989 429.619 83.3016C433.342 -80.5186 437.563 -266.198 346.98 -322.204C296.069 -353.684 221.084 -342.383 117.747 -287.646L117.011 -289.037C220.882 -344.055 296.377 -355.342 347.806 -323.543C439.159 -267.064 434.928 -80.9067 431.197 83.3373C428.212 214.622 425.395 338.624 471.739 375.276C486.217 386.723 504.57 389.328 527.847 383.23C552.459 376.78 567.103 377.542 572.61 385.556C585.416 404.189 546.371 458.737 496.938 527.797C420.46 634.641 325.28 767.613 371.615 836.57C390.557 864.756 432.803 879.986 497.181 881.834C570.011 883.932 673.672 868.994 805.311 837.459C918.387 810.37 1009.79 799.383 1076.95 804.812C1137.34 809.692 1179.95 827.999 1203.61 859.224C1273.58 951.58 1170.05 1137.61 1094.47 1273.45C1052.15 1349.49 1018.73 1409.55 1033.15 1423.4C1043.17 1433.04 1077.48 1419.72 1138.04 1382.66L1138.86 1384.01C1090.47 1413.61 1059.17 1427.97 1042.62 1427.97Z" fill="#DE3210"/>
<path d="M1060.92 1440.23C1056.11 1440.23 1052.49 1439.05 1050.01 1436.71C1034.28 1421.84 1065.07 1364.19 1107.68 1284.4C1180.17 1148.67 1279.44 962.787 1208.22 869.311C1184.34 837.973 1142.09 819.114 1082.64 813.261C1016.19 806.715 926.164 816.188 815.052 841.403C685.12 870.895 582.559 884.144 510.213 880.76C445.84 877.755 403.235 861.448 383.585 832.287C335.535 760.987 427.946 627.829 502.197 520.833C547.774 455.161 587.135 398.444 574.656 380.355C569.458 372.817 555.488 372.012 531.947 377.896C508.851 383.67 490.404 380.806 475.546 369.137C427.621 331.499 428.214 205.38 428.841 71.8569C429.625 -94.8837 430.514 -283.874 337.451 -340.421C286.468 -371.4 213.08 -360.87 113.089 -308.233L112.355 -309.627C212.875 -362.54 286.77 -373.053 338.266 -341.766C432.088 -284.757 431.199 -95.2949 430.413 71.8633C429.786 204.992 429.195 330.735 476.516 367.897C490.97 379.245 508.974 382.015 531.568 376.367C555.815 370.304 570.334 371.313 575.952 379.457C589.047 398.44 551.291 452.847 503.491 521.725C429.512 628.326 337.442 760.993 384.891 831.404C404.248 860.128 446.439 876.205 510.289 879.184C582.505 882.558 684.915 869.326 814.706 839.868C925.986 814.608 1016.19 805.12 1082.8 811.692C1142.7 817.589 1185.33 836.653 1209.48 868.352C1281.31 962.632 1181.76 1149.03 1109.07 1285.13C1068.38 1361.33 1036.24 1421.52 1051.1 1435.56C1061.36 1445.25 1095.08 1432.37 1154.21 1396.2L1155.03 1397.54C1108.05 1426.29 1077.44 1440.23 1060.92 1440.23Z" fill="#E25CD2"/>
<path d="M1079.29 1452.94C1074.36 1452.94 1070.63 1451.73 1068.05 1449.33C1051.85 1434.3 1081.43 1376.48 1122.36 1296.47C1191.97 1160.41 1287.3 974.068 1214.16 878.601C1189.78 846.776 1147.49 827.158 1088.49 820.295C1022.58 812.631 933.71 820.606 824.364 844.013C696.233 871.438 594.885 882.982 523.122 878.326C459.266 874.181 416.712 857.025 396.645 827.33C347.465 754.555 436.79 621.642 508.566 514.846C552.606 449.315 590.64 392.721 577.861 374.261C572.547 366.582 558.689 365.531 535.505 371.04C513.085 376.371 494.984 373.344 480.174 361.786C431.29 323.636 429.623 195.719 427.86 60.2908C425.649 -109.488 423.144 -301.921 327.586 -358.999C276.593 -389.457 204.794 -379.674 108.083 -329.088L107.354 -330.483C204.589 -381.342 276.89 -391.113 328.391 -360.35C424.703 -302.821 427.214 -109.92 429.43 60.2698C431.189 195.31 432.849 322.862 481.14 360.546C495.55 371.793 513.215 374.724 535.14 369.511C559.029 363.832 573.424 365.092 579.153 373.365C592.544 392.708 556.06 446.994 509.87 515.723C438.358 622.129 349.36 754.555 397.947 826.447C417.727 855.716 459.876 872.645 523.223 876.755C594.831 881.398 696.042 869.869 824.035 842.469C933.547 819.028 1022.59 811.041 1088.67 818.73C1148.11 825.645 1190.75 845.465 1215.4 877.642C1289.15 973.899 1193.56 1160.75 1123.76 1297.19C1084.67 1373.6 1053.79 1433.95 1069.12 1448.17C1079.61 1457.91 1112.76 1445.48 1170.48 1410.16L1171.3 1411.51C1125.72 1439.39 1095.78 1452.93 1079.29 1452.94Z" fill="#BC0220"/>
<path d="M1097.72 1466.08C1092.68 1466.08 1088.84 1464.85 1086.15 1462.39C1069.48 1447.2 1097.85 1389.2 1137.11 1308.92C1203.87 1172.45 1295.29 985.551 1220.18 888.04C1195.29 855.729 1152.97 835.355 1094.39 827.488C1029 818.703 941.278 825.205 833.667 846.812C707.284 872.188 607.1 882.042 535.901 876.102C472.535 870.818 430.017 852.806 409.524 822.568C359.181 748.284 445.452 615.56 514.771 508.912C557.289 443.499 594.009 387.006 580.92 368.164C575.488 360.347 561.741 359.044 538.896 364.186C517.437 369.018 499.183 365.743 484.637 354.456C434.803 315.779 430.858 185.997 426.682 48.5903C421.427 -124.344 415.469 -320.351 317.413 -377.952C266.474 -407.876 196.266 -398.806 102.774 -350.225L102.048 -351.622C196.061 -400.472 266.767 -409.527 318.207 -379.309C417.012 -321.268 422.984 -124.799 428.252 48.5441C432.417 185.567 436.35 314.992 485.599 353.212C499.954 364.354 517.274 367.44 538.55 362.65C562.093 357.351 576.371 358.861 582.211 367.266C595.906 386.977 560.683 441.166 516.089 509.771C447.024 616.028 361.069 748.265 410.826 821.684C431.04 851.51 473.164 869.288 536.031 874.533C607.089 880.46 707.12 870.612 833.357 845.268C941.137 823.627 1029.04 817.121 1094.6 825.927C1153.6 833.849 1196.27 854.424 1221.42 887.077C1297.13 985.364 1205.46 1172.77 1138.52 1309.61C1101.02 1386.27 1071.4 1446.83 1087.2 1461.23C1097.92 1471 1130.52 1459 1186.85 1424.53L1187.66 1425.88C1143.44 1452.93 1114.17 1466.08 1097.72 1466.08Z" fill="#967282"/>
<path d="M1116.26 1479.69C1111.1 1479.69 1107.15 1478.43 1104.35 1475.92C1087.19 1460.56 1114.36 1402.34 1151.97 1321.76C1215.88 1184.81 1303.42 997.245 1226.28 897.632C1200.88 864.828 1158.51 843.701 1100.34 834.835C1035.45 824.94 948.841 829.98 842.93 849.804C718.25 873.136 619.2 881.309 548.537 874.092C485.641 867.666 443.142 848.799 422.215 818.011C370.677 742.178 453.927 609.579 520.823 503.032C561.838 437.706 597.258 381.289 583.85 362.059C578.302 354.099 564.659 352.553 542.148 357.323C521.319 361.742 503.417 358.314 488.947 347.138C438.169 307.92 431.918 176.203 425.303 36.7532C416.943 -139.458 407.466 -339.179 306.907 -397.296C256.085 -426.668 187.464 -418.286 97.1264 -371.671L96.4053 -373.07C187.257 -419.948 256.372 -428.319 307.693 -398.659C408.996 -340.115 418.494 -139.938 426.873 36.6756C433.472 175.752 439.706 307.116 489.907 345.889C504.195 356.925 521.175 360.162 541.823 355.784C565.018 350.862 579.188 352.62 585.142 361.156C599.147 381.241 565.171 435.356 522.156 503.867C455.505 610.025 372.555 742.141 423.517 817.121C444.171 847.509 486.287 866.149 548.699 872.523C619.218 879.728 718.111 871.56 842.641 848.253C948.732 828.398 1035.51 823.361 1100.58 833.274C1159.16 842.203 1201.86 863.529 1227.53 896.663C1305.26 997.037 1217.48 1185.1 1153.4 1322.42C1117.48 1399.38 1089.11 1460.17 1105.4 1474.74C1116.36 1484.55 1148.39 1472.96 1203.35 1439.34L1204.17 1440.68C1161.27 1466.93 1132.65 1479.69 1116.26 1479.69Z" fill="#F86604"/>
<path d="M1134.88 1493.75C1129.61 1493.76 1125.55 1492.47 1122.64 1489.91C1104.97 1474.39 1130.96 1415.92 1166.92 1334.98C1228.01 1197.48 1311.69 1009.16 1232.46 907.377C1206.54 874.08 1164.11 852.195 1106.34 842.337C1041.92 831.337 956.408 834.923 852.16 852.978C729.148 874.287 631.198 880.789 561.043 872.29C498.596 864.729 456.098 844.999 434.731 813.651C381.965 736.235 462.226 603.698 526.717 497.203C566.242 431.935 600.377 375.568 586.642 355.943C580.972 347.84 567.432 346.044 545.246 350.455C525.032 354.476 507.49 350.899 493.099 339.832C441.395 300.058 432.815 166.351 423.732 24.7903C412.207 -154.824 399.145 -358.401 296.079 -417.027C245.427 -445.835 178.389 -438.114 91.1329 -393.417L90.416 -394.818C178.18 -439.774 245.706 -447.488 296.855 -418.395C400.661 -359.351 413.752 -155.323 425.302 24.6897C434.362 165.883 442.919 299.247 494.059 338.584C508.268 349.515 524.91 352.894 544.938 348.91C567.803 344.364 581.863 346.37 587.927 355.039C602.251 375.505 569.51 429.57 528.059 498.017C463.802 604.126 383.83 736.182 436.027 812.761C457.126 843.72 499.252 863.223 561.23 870.727C631.234 879.203 729.026 872.71 851.887 851.428C956.314 833.339 1042.01 829.761 1106.6 840.782C1164.77 850.71 1207.53 872.792 1233.7 906.408C1313.51 1008.93 1229.61 1197.75 1168.36 1335.62C1134.01 1412.92 1106.88 1473.97 1123.68 1488.73C1134.87 1498.55 1166.35 1487.38 1219.95 1454.59L1220.77 1455.93C1179.18 1481.37 1151.21 1493.75 1134.88 1493.75Z" fill="#9E7A72"/>
<path d="M1153.62 1508.28C1148.24 1508.28 1144.07 1506.97 1141.05 1504.36C1122.86 1488.69 1147.66 1429.92 1181.98 1348.59C1240.27 1210.46 1320.09 1021.28 1238.72 917.28C1212.28 883.487 1169.77 860.85 1112.39 850.003C1048.44 837.91 963.984 840.054 861.369 856.36C739.971 875.655 643.091 880.479 573.418 870.708C511.394 862.008 468.882 841.412 447.066 809.493C393.042 730.451 470.339 597.92 532.448 491.432C570.5 426.195 603.36 369.851 589.294 349.821C583.503 341.574 570.059 339.533 548.189 343.58C528.575 347.209 511.385 343.496 497.095 332.54C444.477 292.197 433.543 156.427 421.966 12.6872C407.216 -170.453 390.499 -378.028 284.934 -437.151C234.515 -465.386 169.059 -458.295 84.8236 -415.468L84.1108 -416.872C168.85 -459.954 234.789 -467.035 285.701 -438.523C391.998 -378.991 408.751 -170.97 423.531 12.5613C435.08 155.943 445.986 291.373 498.049 331.292C512.169 342.115 528.474 345.629 547.9 342.033C570.435 337.86 584.396 340.114 590.577 348.915C605.226 369.771 573.707 423.811 533.805 492.225C471.919 598.329 394.899 730.384 448.362 808.603C469.917 840.143 512.064 860.512 573.633 869.147C643.153 878.897 739.874 874.076 861.121 854.805C963.919 838.47 1048.55 836.333 1112.68 848.455C1170.45 859.377 1213.27 882.205 1239.96 916.308C1321.9 1021.04 1241.87 1210.71 1183.43 1349.2C1150.65 1426.88 1124.75 1488.25 1142.07 1503.17C1153.48 1513 1184.43 1502.24 1236.7 1470.26L1237.52 1471.61C1197.2 1496.27 1169.87 1508.28 1153.62 1508.28Z" fill="#EC3056"/>
<path d="M1172.44 1523.29C1166.96 1523.29 1162.69 1521.95 1159.56 1519.3C1140.84 1503.48 1164.46 1444.39 1197.15 1362.6C1252.64 1223.77 1328.63 1033.63 1245.06 927.335C1218.09 893.044 1175.51 869.657 1118.49 857.824C1054.99 844.651 971.575 845.36 870.559 859.931C750.737 877.218 654.888 880.38 585.672 869.33C524.049 859.49 481.511 838.026 459.239 805.53C403.923 724.817 478.285 592.234 538.037 485.702C574.625 420.467 606.224 364.127 591.816 343.684C585.903 335.292 572.554 333.008 550.99 336.696C531.96 339.954 515.114 336.102 500.929 325.253C447.403 284.313 434.086 146.418 419.987 0.424225C401.948 -186.363 381.501 -398.072 273.452 -457.685C223.329 -485.34 159.448 -478.851 78.1636 -437.852L77.4551 -439.258C159.24 -480.509 223.599 -486.985 274.211 -459.061C382.988 -399.048 403.476 -186.898 421.552 0.275269C435.618 145.918 448.902 283.482 501.881 324.003C515.9 334.726 531.872 338.368 550.723 335.145C572.935 331.346 586.8 333.84 593.097 342.778C608.077 364.031 577.771 418.065 539.404 486.472C479.866 592.627 405.768 724.736 460.532 804.638C482.551 836.767 524.736 858.009 585.917 867.777C654.972 878.8 750.666 875.636 870.332 858.374C971.533 843.772 1055.13 843.069 1118.81 856.284C1176.2 868.195 1219.09 891.772 1246.29 926.362C1330.43 1033.37 1254.24 1224 1198.61 1363.19C1167.38 1441.31 1142.72 1503.01 1160.57 1518.1C1172.21 1527.94 1202.63 1517.57 1253.57 1486.4L1254.39 1487.75C1215.32 1511.65 1188.62 1523.29 1172.44 1523.29Z" fill="#C4122E"/>
<path d="M1191.39 1538.77C1185.81 1538.77 1181.43 1537.41 1178.19 1534.72C1158.92 1518.75 1181.37 1459.3 1212.43 1377.03C1265.13 1237.42 1337.31 1046.21 1251.48 937.555C1223.99 902.762 1181.32 878.624 1124.65 865.812C1061.59 851.558 979.192 850.842 879.729 863.701C761.438 878.995 666.583 880.5 597.807 868.172C536.563 857.195 493.982 834.854 471.244 801.77C414.601 719.35 486.05 586.65 543.462 480.023C578.603 414.756 608.953 358.389 594.195 337.521C588.158 328.984 574.889 326.454 553.635 329.783C535.167 332.676 518.667 328.698 504.597 317.957C450.191 276.41 434.465 136.327 417.819 -11.9811C396.426 -202.54 372.183 -418.523 261.665 -478.622C211.891 -505.693 149.58 -499.781 71.1744 -460.563L70.4722 -461.971C149.373 -501.438 212.158 -507.334 262.415 -480.005C373.653 -419.513 397.946 -203.096 419.38 -12.1552C435.989 135.808 451.677 275.567 505.551 316.704C519.46 327.326 535.11 331.096 553.392 328.229C575.297 324.792 589.061 327.536 595.48 336.612C610.802 358.276 581.695 412.331 544.847 480.768C487.641 587.019 416.444 719.25 472.541 800.879C495.03 833.603 537.269 855.724 598.086 866.624C666.702 878.924 761.394 877.418 879.532 862.14C979.171 849.26 1061.76 849.978 1125 864.278C1182.03 877.172 1225 901.499 1252.72 936.581C1339.1 1045.94 1266.74 1237.62 1213.9 1377.58C1184.23 1456.18 1160.79 1518.26 1179.19 1533.51C1191.05 1543.34 1220.94 1533.35 1270.57 1502.98L1271.39 1504.33C1233.54 1527.48 1207.47 1538.77 1191.39 1538.77Z" fill="#C8529E"/>
<path d="M1210.47 1554.73C1204.8 1554.73 1200.32 1553.35 1196.96 1550.62C1177.14 1534.51 1198.4 1474.67 1227.84 1391.85C1277.76 1251.39 1346.14 1059.02 1257.99 947.936C1229.98 912.639 1187.21 887.75 1130.88 873.962C1068.23 858.628 986.817 856.513 888.888 867.67C772.083 880.984 678.194 880.831 609.829 867.228C548.944 855.112 506.304 831.887 483.096 798.208C425.093 714.032 493.657 581.153 548.749 474.381C582.454 409.056 611.565 352.641 596.449 331.342C590.286 322.656 577.1 319.883 556.14 322.857C538.223 325.406 522.057 321.301 508.109 310.66C452.828 268.481 434.667 126.143 415.438 -24.5546C390.624 -219.01 362.501 -439.409 249.536 -499.984C200.172 -526.457 139.424 -521.105 63.8294 -483.62L63.1313 -485.03C139.211 -522.758 200.427 -528.106 250.278 -501.371C363.956 -440.41 392.136 -219.583 416.997 -24.7518C436.184 125.608 454.306 267.63 509.062 309.409C522.854 319.933 538.186 323.82 555.92 321.301C577.52 318.229 591.196 321.219 597.732 330.431C613.401 352.513 585.487 406.612 550.145 475.105C495.246 581.501 426.923 713.916 484.39 797.316C507.358 830.649 549.665 853.651 610.135 865.686C678.343 879.264 772.066 879.404 888.712 866.109C986.821 854.935 1068.43 857.059 1131.25 872.437C1187.93 886.309 1230.99 911.384 1259.22 946.96C1347.91 1058.73 1279.37 1251.57 1229.32 1392.38C1201.2 1471.5 1178.99 1534 1197.95 1549.41C1210.02 1559.21 1239.39 1549.61 1287.73 1520.03L1288.55 1521.38C1251.9 1543.79 1226.45 1554.73 1210.47 1554.73Z" fill="#DE7C66"/>
<path d="M1229.67 1571.19C1223.91 1571.19 1219.33 1569.8 1215.86 1567.03C1195.46 1550.79 1215.56 1490.51 1243.37 1407.09C1290.52 1265.7 1355.09 1072.07 1264.57 958.482C1236.04 922.68 1193.17 897.042 1137.16 882.285C1074.92 865.887 994.462 862.373 898.03 871.849C782.675 883.183 689.721 881.389 621.74 866.502C561.192 853.242 518.481 829.136 494.793 794.847C435.394 708.864 501.092 575.746 553.884 468.782C586.165 403.372 614.045 346.884 598.566 325.144C592.277 316.31 579.169 313.293 558.496 315.919C515.64 321.355 484.582 289.531 460.758 215.734C439.582 150.125 426.6 59.0969 412.859 -37.279C384.558 -235.756 352.479 -460.718 237.097 -521.766C188.185 -547.645 128.996 -542.819 56.1424 -507.019L55.4507 -508.431C128.788 -544.47 188.445 -549.285 237.833 -523.157C353.923 -461.736 386.061 -236.352 414.417 -37.5013C428.149 58.8053 441.121 149.77 462.257 215.247C485.804 288.194 516.32 319.685 558.299 314.356C579.597 311.65 593.191 314.881 599.847 324.23C615.871 346.735 589.139 400.901 555.295 469.476C502.688 576.069 437.216 708.73 496.089 793.949C519.542 827.901 561.932 851.791 622.077 864.962C689.895 879.811 782.686 881.599 897.877 870.282C994.491 860.787 1075.13 864.313 1137.56 880.76C1193.91 895.605 1237.05 921.425 1265.8 957.5C1356.86 1071.75 1292.13 1265.86 1244.87 1407.58C1218.29 1487.29 1197.3 1550.24 1216.84 1565.8C1229.12 1575.58 1257.97 1566.34 1305.04 1537.55L1305.86 1538.89C1270.38 1560.6 1245.53 1571.19 1229.67 1571.19Z" fill="#BC86A6"/>
<path d="M1249 1588.15C1243.16 1588.15 1238.49 1586.74 1234.91 1583.94C1213.92 1567.56 1232.85 1506.82 1259.05 1422.75C1303.42 1280.37 1364.19 1085.36 1271.25 969.199C1210.02 892.676 1087.52 861.391 907.176 876.23C793.224 885.6 701.165 882.155 633.552 865.99C573.319 851.587 530.52 826.587 506.346 791.683C445.517 703.85 508.368 570.428 558.873 463.22C589.743 397.695 616.401 341.106 600.549 318.915C594.13 309.932 581.1 306.671 560.706 308.948C558.039 309.246 555.41 309.395 552.83 309.395C514.401 309.397 485.41 276.28 462.058 206.087C439.899 139.484 425.411 47.3566 410.075 -50.1773C378.212 -252.808 342.096 -482.474 224.331 -543.988C175.933 -569.271 118.29 -564.953 48.1075 -530.791L47.4199 -532.207C118.08 -566.602 176.186 -570.911 225.058 -545.385C343.528 -483.504 379.707 -253.421 411.629 -50.4249C426.956 47.044 441.433 139.108 463.551 205.588C488.198 279.672 519.017 312.007 560.534 307.381C581.544 305.031 595.05 308.507 601.83 317.997C618.218 340.938 592.659 395.195 560.297 463.887C509.966 570.728 447.326 703.693 507.639 790.781C531.584 825.358 574.071 850.146 633.919 864.454C701.37 880.581 793.27 884.007 907.046 874.655C1002.21 866.833 1081.91 871.743 1143.94 889.255C1199.97 905.069 1243.21 931.634 1272.47 968.211C1365.94 1085.03 1305.03 1280.5 1260.55 1423.22C1235.52 1503.54 1215.74 1566.98 1235.87 1582.69C1248.36 1592.44 1276.7 1583.55 1322.51 1555.53L1323.33 1556.87C1288.99 1577.89 1264.74 1588.15 1249 1588.15Z" fill="#AE0C9E"/>
<path d="M1268.48 1605.61C1262.56 1605.61 1257.8 1604.18 1254.11 1601.36C1232.52 1584.85 1250.28 1523.61 1274.85 1438.85C1316.46 1295.39 1373.43 1098.91 1278.01 980.081C1215.7 902.499 1094.01 869.105 916.311 880.806C803.73 888.224 712.53 883.137 645.262 865.692C585.322 850.146 542.422 824.248 517.755 788.716C455.459 698.98 515.487 565.195 563.72 457.694C593.185 392.022 618.633 335.305 602.402 312.653C595.855 303.52 582.892 300.017 562.779 301.945C560.546 302.159 558.332 302.268 556.156 302.268C517.489 302.272 487.817 268.37 463.173 196.375C440.022 128.744 424.022 35.4819 407.082 -63.2563C371.586 -270.161 331.355 -504.671 211.246 -566.642C163.407 -591.325 107.301 -587.492 39.7223 -554.92L39.041 -556.339C106.15 -588.684 164.33 -592.617 211.967 -568.041C332.772 -505.712 373.074 -270.788 408.633 -63.5227C425.56 35.1504 441.55 128.352 464.661 195.863C490.418 271.108 521.556 304.311 562.63 300.377C583.36 298.388 596.782 302.104 603.681 311.734C620.44 335.122 596.044 389.496 565.156 458.336C517.085 565.474 457.26 698.813 519.047 787.816C543.493 823.029 586.091 848.717 645.658 864.167C712.767 881.572 803.789 886.645 916.21 879.237C1009.94 873.062 1088.73 879.35 1150.39 897.921C1206.1 914.703 1249.46 942.015 1279.24 979.095C1375.18 1098.56 1318.07 1295.49 1276.37 1439.29C1252.88 1520.28 1234.33 1584.26 1255.06 1600.11C1267.76 1609.81 1295.58 1601.27 1340.15 1574L1340.97 1575.35C1307.74 1595.68 1284.09 1605.61 1268.48 1605.61Z" fill="#A69410"/>
<path d="M1288.11 1623.58C1282.13 1623.58 1277.28 1622.15 1273.48 1619.3C1251.28 1602.67 1267.86 1540.89 1290.82 1455.38C1329.65 1310.77 1382.84 1112.71 1284.88 991.142C1221.5 912.496 1100.58 876.979 925.457 885.594C814.197 891.055 723.836 884.339 656.882 865.61C597.214 848.919 554.199 822.115 529.031 785.945C465.234 694.256 522.453 560.043 568.43 452.204C597.658 383.645 620.744 329.494 604.125 306.369C597.449 297.08 584.553 293.33 564.703 294.923C562.89 295.068 561.089 295.141 559.312 295.141C520.428 295.145 490.068 260.438 464.102 186.595C439.949 117.91 422.431 23.4752 403.881 -76.503C364.679 -287.814 320.247 -527.317 197.834 -589.741C150.602 -613.83 96.0237 -610.455 30.9729 -579.427L30.2979 -580.848C94.9043 -611.667 151.514 -615.129 198.547 -591.145C321.649 -528.37 366.157 -288.46 405.426 -76.7925C423.963 23.1248 441.471 117.501 465.582 186.07C492.458 262.513 523.927 296.622 564.575 293.354C585.031 291.719 598.375 295.678 605.398 305.451C622.535 329.294 599.296 383.807 569.873 452.82C524.049 560.305 467.02 694.074 530.318 785.047C555.27 820.908 597.994 847.505 657.301 864.096C724.09 882.78 814.283 889.49 925.376 884.022C1017.71 879.489 1095.61 887.134 1156.92 906.758C1212.34 924.503 1255.8 952.562 1286.1 990.156C1384.56 1112.34 1331.26 1310.85 1292.34 1455.79C1270.39 1537.51 1253.06 1602.05 1274.42 1618.04C1287.29 1627.68 1314.61 1619.48 1357.95 1592.97L1358.77 1594.31C1326.64 1613.97 1303.58 1623.58 1288.11 1623.58Z" fill="#9E4E94"/>
<path d="M1307.9 1642.08C1301.86 1642.08 1296.93 1640.64 1293.02 1637.77C1270.19 1621.03 1285.61 1558.66 1306.94 1472.35C1342.99 1326.51 1392.37 1126.77 1291.83 1002.38C1227.4 922.655 1107.23 885.031 934.608 890.587C824.615 894.107 735.07 885.762 668.417 865.747C609.001 847.905 565.858 820.191 540.186 783.373C474.854 689.682 529.277 554.982 573.004 446.749C600.79 377.974 622.738 323.653 605.723 300.042C598.916 290.599 586.087 286.623 566.489 287.855C525.392 290.479 493.139 255.147 464.859 176.73C439.698 106.965 420.651 11.3214 400.487 -89.9385C357.504 -305.787 308.785 -550.437 184.117 -613.31C138.177 -636.478 83.5951 -633.459 21.8752 -604.339L21.2065 -605.763C83.3834 -635.098 138.433 -638.114 184.823 -614.715C310.177 -551.496 358.975 -306.448 402.028 -90.2469C422.181 10.9522 441.215 106.539 466.337 176.195C494.347 253.857 526.147 288.803 566.389 286.285C586.565 284.995 599.851 289.204 606.997 299.121C624.522 323.437 602.432 378.115 574.464 447.338C530.876 555.219 476.632 689.481 541.477 782.473C566.942 818.991 609.804 846.502 668.872 864.238C735.363 884.205 824.745 892.544 934.564 889.013C1025.55 886.089 1102.58 895.093 1163.53 915.767C1218.68 934.469 1262.26 963.278 1293.06 1001.39C1337.79 1056.74 1357.06 1131.57 1351.97 1230.15C1347.63 1314.35 1325.91 1402.17 1308.47 1472.73C1288.08 1555.22 1271.97 1620.38 1293.96 1636.5C1307.01 1646.08 1333.83 1638.2 1375.96 1612.42L1376.78 1613.77C1345.7 1632.78 1323.23 1642.08 1307.9 1642.08Z" fill="#8C52D4"/>
<path d="M1327.86 1661.1C1321.77 1661.1 1316.76 1659.65 1312.75 1656.77C1289.28 1639.92 1303.52 1576.94 1323.22 1489.77C1356.49 1342.62 1402.05 1141.09 1298.88 1013.79C1233.39 932.985 1113.93 893.287 943.772 895.792C834.996 897.393 746.243 887.406 679.861 866.103C620.675 847.11 577.39 818.477 551.204 781C484.3 685.245 535.941 549.998 577.436 441.321C603.788 372.305 624.602 317.793 607.182 293.689C600.245 284.093 587.475 279.87 568.131 280.768C527.505 282.666 494.852 246.453 465.429 166.8C439.249 95.9254 418.666 -0.964478 396.878 -103.544C350.035 -324.059 296.945 -573.998 170.068 -637.321C124.812 -659.906 71.7639 -657.322 12.4002 -629.63L11.7378 -631.057C71.5564 -658.96 125.065 -661.541 170.77 -638.729C298.325 -575.065 351.5 -324.734 398.416 -103.871C420.194 -1.35052 440.765 95.4869 466.905 166.255C496.057 245.169 528.195 281.047 568.057 279.198C587.97 278.273 601.187 282.708 608.456 292.768C626.375 317.562 605.425 372.425 578.905 441.883C537.544 550.212 486.067 685.029 552.493 780.1C578.478 817.289 621.493 845.721 680.343 864.607C746.561 885.86 835.214 895.828 943.752 894.221C1033.44 892.888 1109.6 903.242 1170.22 924.956C1225.1 944.615 1268.8 974.171 1300.11 1012.8C1346 1069.43 1366.77 1145.44 1363.59 1245.18C1360.88 1330.37 1340.85 1418.94 1324.76 1490.12C1305.92 1573.44 1291.04 1639.25 1313.67 1655.5C1326.9 1664.99 1353.22 1657.44 1394.15 1632.4L1394.97 1633.74C1364.93 1652.11 1343.03 1661.1 1327.86 1661.1Z" fill="#92064E"/>
<path d="M1347.99 1680.67C1341.85 1680.67 1336.78 1679.21 1332.67 1676.32C1308.54 1659.36 1321.6 1595.72 1339.67 1507.64C1370.15 1359.12 1411.89 1155.7 1306.04 1025.4C1239.49 943.49 1120.69 901.706 952.935 901.211C845.402 900.892 757.349 889.273 691.22 866.678C632.246 846.529 588.804 816.97 562.1 778.82C493.59 680.95 542.464 545.086 581.735 435.919C606.66 366.632 626.348 311.904 608.519 287.294C601.453 277.543 588.741 273.076 569.638 273.64C569.015 273.659 568.388 273.668 567.77 273.668C528.363 273.672 495.927 236.445 465.819 156.776C438.607 84.7575 416.482 -13.4205 393.056 -117.366C342.278 -342.678 284.728 -598.053 155.706 -661.818C111.169 -683.826 59.6474 -681.648 2.57067 -655.341L1.91455 -656.772C59.4419 -683.289 111.416 -685.46 156.404 -663.23C286.097 -599.132 343.737 -343.369 394.59 -117.712C418.003 -13.8234 440.117 84.3043 467.293 156.213C497.6 236.418 530.165 273.303 569.592 272.061C589.265 271.49 602.398 276.16 609.794 286.365C628.111 311.648 608.299 366.72 583.217 436.445C544.07 545.273 495.349 680.707 563.391 777.909C589.9 815.78 633.081 845.142 691.732 865.182C757.697 887.721 845.582 899.312 952.943 899.631C1041.31 899.893 1116.69 911.565 1177 934.319C1231.62 954.928 1275.45 985.238 1307.26 1024.4C1354.33 1082.35 1376.61 1159.59 1375.36 1260.54C1374.3 1346.75 1355.96 1436.14 1341.22 1507.96C1323.94 1592.16 1310.3 1658.67 1333.58 1675.03C1346.96 1684.44 1372.79 1677.19 1412.54 1652.87L1413.36 1654.22C1384.33 1671.97 1362.99 1680.67 1347.99 1680.67Z" fill="#A4640E"/>
</g>
</g>
<defs>
<clipPath id="clip0_261_1614">
<rect width="1677" height="1049" fill="white" transform="translate(-135)"/>
</clipPath>
</defs>
</svg>
