<svg width="30" height="31" viewBox="0 0 30 31" fill="none" xmlns="http://www.w3.org/2000/svg">
<g id="bxs-sun.svg">
<path id="Vector" d="M8.74375 15.5C8.74375 18.9513 11.5512 21.7588 15.0025 21.7588C18.4537 21.7588 21.2613 18.9513 21.2613 15.5C21.2613 12.0487 18.4537 9.24125 15.0025 9.24125C11.5512 9.24125 8.74375 12.0487 8.74375 15.5ZM13.75 24.25H16.25V28H13.75V24.25ZM13.75 3H16.25V6.75H13.75V3ZM2.5 14.25H6.25V16.75H2.5V14.25ZM23.75 14.25H27.5V16.75H23.75V14.25ZM7.04625 25.2225L5.27875 23.455L7.93 20.8037L9.6975 22.5712L7.04625 25.2225ZM20.3025 8.43L22.955 5.7775L24.7225 7.545L22.07 10.1975L20.3025 8.43ZM7.93 10.1987L5.27875 7.54625L7.0475 5.77875L9.6975 8.43125L7.93 10.1987ZM24.7225 23.455L22.955 25.2225L20.3025 22.57L22.07 20.8025L24.7225 23.455Z" fill="white"/>
</g>
</svg>
