<svg width="245" height="220" viewBox="0 0 245 220" fill="none" xmlns="http://www.w3.org/2000/svg">
<g id="support 1" clip-path="url(#clip0_269_4053)">
<g id="Group">
<path id="Vector" d="M217.085 185.054C202.311 215.176 167.623 229.037 133.978 213.701C115.573 205.33 101.303 187.97 82.6106 180.114C61.6179 171.262 38.217 164.231 21.6447 145.84C3.99637 126.251 -3.26503 96.9521 2.37996 71.838C9.28126 41.2688 37.9658 34.168 62.2305 21.7488C161.764 -29.1628 272.227 7.58063 224.454 150.268C220.464 162.205 221.974 175.071 217.085 185.054Z" fill="#CCE9FF"/>
<path id="Vector_2" d="M129.827 2.60999C180.043 2.60999 220.754 43.2155 220.754 93.3063C220.754 143.397 180.045 184.003 129.827 184.003C79.6087 184.003 38.8999 143.394 38.8999 93.3063C38.8999 43.2185 79.6087 2.60999 129.827 2.60999Z" fill="#CCE9FE"/>
<path id="Vector_3" d="M95.4276 138.143C101.399 140.251 108.601 140.036 114.034 136.559C119.374 133.142 124.238 130.674 130.813 130.794C136.684 130.901 141.541 134.067 147.227 134.742C151.737 135.276 156.32 133.314 159.588 130.169C162.779 127.098 164.898 122.417 163.511 118.216C162.785 116.017 161.197 114.203 160.291 112.07C158.201 107.154 163.703 104.187 162.335 99.0115C161.171 94.6097 156.329 91.47 156.401 86.9182C156.454 83.5862 159.04 81.0037 159.95 77.9213C160.869 74.8112 160.666 71.3275 159.045 68.4863C157.831 66.3742 155.964 64.7109 153.723 63.7452C151.732 62.899 149.508 62.8833 147.968 61.1477C145.225 58.0549 144.218 54.703 140.454 52.4418C137.267 50.5274 133.058 50.4057 129.402 50.7401C121.277 51.483 113.392 55.7604 108.815 62.573C107.193 64.9873 106.023 67.4583 105.982 70.3276C105.938 73.4644 105.939 76.6196 104.012 79.2866C102.394 81.526 99.7973 82.8359 97.2226 83.8462C94.6479 84.8566 91.9488 85.6732 89.6884 87.2659C87.428 88.8587 85.6327 91.4546 85.8966 94.2019C86.1174 96.5013 87.7132 98.4996 87.9245 100.8C88.3108 104.983 84.2711 108.021 81.7804 111.408C80.0622 113.81 79.0223 116.628 78.7691 119.569C78.5159 122.509 79.0589 125.463 80.3412 128.122C83.3631 134.185 88.8527 135.553 94.6047 137.834C94.8759 137.942 95.1502 138.045 95.4276 138.143Z" fill="#0B2D4E"/>
<path id="Vector_4" d="M110.099 110.354C109.887 115.494 111.081 119.354 115.794 121.897C119.548 123.922 124.042 124.586 128.184 124.688C135.131 124.859 142.871 123.071 148.068 118.204C149.011 117.321 149.916 116.238 149.984 114.949C150.046 113.778 149.4 112.674 149.343 111.502C149.247 109.526 150.788 107.89 151.476 106.034C152.386 103.584 151.767 100.847 150.95 98.3657C150.133 95.8846 149.111 93.3768 149.234 90.7668C149.393 87.381 151.432 84.4256 153.065 81.4532C154.698 78.4807 155.983 74.8649 154.588 71.7747C154.087 70.7402 153.335 69.8465 152.4 69.1744C151.465 68.5024 150.378 68.0731 149.235 67.9254C146.868 67.6644 144.741 70.3618 143.225 71.8481C141.182 73.8504 138.913 75.6102 136.465 77.0925C133.082 79.1401 129.367 80.6486 126.187 82.9976C124.261 84.4174 122.197 86.3664 121.277 88.6279C120.241 91.1766 122.055 93.6433 119.862 95.9874C118.447 97.4996 116.274 98.014 114.564 99.1846C110.901 101.683 110.266 106.296 110.099 110.354Z" fill="#061F33"/>
<path id="Vector_5" d="M148.464 139.115C143.586 131.618 140.551 122.416 144.789 113.951C145.218 113.093 145.735 112.157 146.647 111.854C148.61 111.204 151.271 111.903 152.977 112.902C158.895 116.365 162.517 122.883 165.842 128.682C169.296 134.706 172.296 140.978 175.767 146.993C177.174 149.429 178.593 151.898 179.347 154.607C180.007 156.979 180.08 159.696 179.179 162.017C175.282 172.054 164.567 159.76 161.306 156.047C156.625 150.716 152.334 145.057 148.464 139.115Z" fill="#1565C0"/>
<g id="Group_2">
<path id="Vector_6" d="M104.329 130.727C102.927 124.805 102.2 118.747 105.377 114.713C106.812 112.892 109.368 111.623 111.461 110.721C115.541 108.962 119.713 106.597 124.081 105.83C128.687 105.022 133.809 104.525 138.399 105.68C141.314 106.414 144.042 107.773 146.649 109.239C148.911 110.512 151.686 111.607 152.784 113.974C155.46 119.743 157.791 125.664 159.766 131.707C161.405 136.736 163.204 142.007 160.621 147.103C159.784 148.755 158.569 150.17 157.612 151.746C156.546 153.504 156.148 155.155 156.009 157.182C155.691 161.808 155.813 166.448 155.828 171.081C155.832 172.416 155.814 173.803 155.228 175.004C154.073 177.37 150.933 177.403 148.671 177.399L126.307 177.361C123.206 177.355 120.836 177.734 117.924 178.331C115.474 178.833 113.37 177.6 112.195 175.326C111.083 173.172 110.997 170.658 110.878 168.239C110.413 158.819 109.076 149.462 106.884 140.288C106.262 137.692 105.174 134.297 104.329 130.727Z" fill="#1565C0"/>
<g id="Clip path group">
<mask id="mask0_269_4053" style="mask-type:luminance" maskUnits="userSpaceOnUse" x="103" y="104" width="59" height="75">
<g id="a">
<path id="Vector_7" d="M104.329 130.727C102.927 124.805 102.2 118.747 105.377 114.713C106.812 112.892 109.368 111.623 111.461 110.721C115.541 108.962 119.713 106.597 124.081 105.83C128.687 105.022 133.809 104.525 138.399 105.68C141.314 106.414 144.042 107.773 146.649 109.239C148.911 110.512 151.686 111.607 152.784 113.974C155.46 119.743 157.791 125.664 159.766 131.707C161.405 136.736 163.204 142.007 160.621 147.103C159.784 148.755 158.569 150.17 157.612 151.746C156.546 153.504 156.148 155.155 156.009 157.182C155.691 161.808 155.813 166.448 155.828 171.081C155.832 172.416 155.814 173.803 155.228 175.004C154.073 177.37 150.933 177.403 148.671 177.399L126.307 177.361C123.206 177.355 120.836 177.734 117.924 178.331C115.474 178.833 113.37 177.6 112.195 175.326C111.083 173.172 110.997 170.658 110.878 168.239C110.413 158.819 109.076 149.462 106.884 140.288C106.262 137.692 105.174 134.297 104.329 130.727Z" fill="white"/>
</g>
</mask>
<g mask="url(#mask0_269_4053)">
<g id="Group_3">
<path id="Vector_8" d="M121.594 113.502C119.84 110.557 119.441 106.879 121.74 104.041C122.791 102.743 124.65 102.598 126.239 102.568C129.372 102.51 132.5 102.841 135.551 103.553C138.455 104.23 141.417 105.379 142.675 108.303C143.112 109.385 143.284 110.555 143.176 111.716C143.068 112.877 142.683 113.996 142.054 114.978C140.913 116.8 139.102 118.104 137.01 118.612C133.668 119.406 129.755 119.299 126.566 117.963C124.481 117.032 122.743 115.471 121.594 113.502Z" fill="#1565C0"/>
<path id="Vector_9" d="M101.689 157.876C101.712 153.336 101.735 148.795 101.758 144.254C101.766 142.674 100.737 133.051 103.202 133.162C103.468 133.191 103.721 133.296 103.928 133.465C105.155 134.34 105.785 135.805 106.358 137.197C108.155 141.558 109.664 148.54 113.404 151.594C117.206 154.698 123.053 156.007 127.776 156.752C133.293 157.622 138.901 157.686 144.476 158.024C148.083 158.243 152.061 158.761 154.431 161.482C156.122 163.425 156.984 166.338 157.887 168.712C158.677 170.787 159.306 173.252 157.704 175.13C156.977 175.899 156.095 176.504 155.116 176.907C151.637 178.543 147.834 179.368 144.04 180.002C133.422 181.774 122.6 182.142 111.846 181.633C109.547 181.524 107.054 181.295 105.358 179.743C104.097 178.588 103.502 176.888 103.079 175.232C101.638 169.59 101.658 163.696 101.689 157.876Z" fill="#1565C0"/>
</g>
</g>
</g>
</g>
<path id="Vector_10" d="M152.53 80.3303C156.598 84.5063 152.908 94.705 146.421 93.2288C139.451 91.6426 140.5 80.8076 146.803 79.0286C149.261 78.335 151.221 78.9855 152.53 80.3303Z" fill="#2A94F4"/>
<path id="Vector_11" d="M85.4468 143.373C84.1998 145.617 82.9655 147.868 81.7439 150.126C79.2742 154.716 74.6889 164.914 82.0298 167.433C85.7284 168.702 87.8439 167.461 90.2888 164.773C99.5486 154.59 107.413 143.226 113.675 130.979C116.001 126.427 122.179 114.566 114.675 111.856C113.485 111.434 112.22 111.264 110.96 111.356C109.7 111.448 108.473 111.8 107.357 112.39C106.356 112.96 105.425 113.645 104.583 114.432C99.1692 119.248 95.3136 125.462 91.8839 131.765C89.7638 135.658 87.5937 139.51 85.4468 143.373Z" fill="#1565C0"/>
<path id="Vector_12" d="M127.95 115.003C125.717 114.288 123.877 112.903 123.188 110.701C122.562 108.703 123.547 106.455 123.724 104.439C123.893 102.506 123.914 100.564 123.787 98.6281C123.669 96.839 123.498 94.9742 123.773 93.1929C123.93 92.1737 124.491 92.3482 125.524 91.943C126.558 91.5378 127.716 91.5346 128.84 91.5372C131.14 91.5431 137.134 91.3763 138.555 93.3893C139.207 94.3132 139.258 95.4772 139.289 96.576C139.327 97.9042 139.563 99.6242 139.78 101.477C139.878 102.302 139.817 103.124 139.944 103.943C140.128 104.857 140.395 105.752 140.741 106.618C141.897 109.941 140.814 113.102 137.211 114.624C134.253 115.777 130.993 115.91 127.95 115.003Z" fill="#F8A17A"/>
<path id="Vector_13" d="M123.785 93.1929C123.942 92.1737 124.503 92.3482 125.536 91.943C126.57 91.5378 127.728 91.5346 128.852 91.5372C131.152 91.5431 137.146 91.3763 138.566 93.3893C139.219 94.3132 139.27 95.4772 139.301 96.576C139.339 97.9042 139.574 99.6242 139.792 101.477C139.89 102.302 139.829 103.124 139.955 103.943C140.083 104.641 140.275 105.326 140.53 105.989C138.268 106.831 135.807 106.983 133.458 106.427C129.269 105.399 126.096 102.798 123.834 99.417C123.822 99.154 123.814 98.8908 123.797 98.6285C123.681 96.8403 123.509 94.9761 123.785 93.1929Z" fill="#E5785C"/>
<path id="Vector_14" d="M120.447 80.099C120.43 77.2594 120.845 74.4336 121.679 71.7184C125.088 61.3095 138.106 58.7381 145.945 66.2098C154.686 74.5421 151.341 94.4643 142.133 101.463C140.891 102.392 139.455 103.03 137.932 103.329C136.409 103.628 134.838 103.581 133.335 103.192C124.289 100.771 120.39 89.6665 120.447 80.099Z" fill="#F8A17A"/>
<path id="Vector_15" d="M122.158 80.3556C118.153 78.1698 116.92 83.7026 117.609 86.4564C117.871 87.6023 118.362 88.6839 119.051 89.6373C120.004 90.897 122.729 92.9869 124.299 91.6085C125.011 90.9831 125.084 89.9208 125.107 88.9744C125.165 86.4359 124.873 81.8365 122.158 80.3556Z" fill="#F8A17A"/>
<g id="Group_4">
<path id="Vector_16" d="M135.203 98.5752C136.194 98.5747 137.183 98.5019 138.163 98.3572L137.986 97.1593C134.463 97.6979 130.86 97.1958 127.62 95.715C126.832 95.3599 126.081 94.9294 125.376 94.4295C124.198 93.5751 123.209 92.4875 122.471 91.2346L121.424 91.8463C122.247 93.244 123.351 94.4574 124.665 95.4105C125.433 95.9559 126.252 96.4257 127.11 96.8134C129.647 97.9806 132.409 98.5818 135.203 98.5752Z" fill="#1565C0"/>
</g>
<g id="Group_5">
<path id="Vector_17" d="M141.674 96.2057C140.209 94.9523 136.952 95.0596 135.879 96.361C135.083 97.3257 135.326 98.5501 136.202 99.3657C137.238 100.331 138.52 100.274 139.813 99.9836C141.433 99.6185 143.439 97.7156 141.674 96.2057Z" fill="#1565C0"/>
</g>
<path id="Vector_18" d="M120.426 72.1461C124.017 61.1881 137.721 58.481 145.974 66.3474C147.806 68.1513 149.182 70.3632 149.989 72.8012C149.797 73.1001 149.584 73.3853 149.352 73.6547C148.22 74.9629 146.657 75.8177 145.084 76.5429C140.49 78.6612 135.538 79.9033 130.562 80.8344C130.195 80.9029 129.827 80.9704 129.459 81.0428C128.089 81.3123 126.729 81.649 125.534 82.3521C122.153 84.3399 123.607 88.7138 121.13 90.6283C120.925 90.786 120.697 90.9093 120.453 90.9933C119.552 87.7287 119.106 84.356 119.128 80.9701C119.11 77.9801 119.548 75.0049 120.426 72.1461Z" fill="#E5785C"/>
<path id="Vector_19" d="M129.105 79.7917C127.797 80.2756 126.508 80.8243 125.44 81.7084C122.42 84.2088 124.555 88.2937 122.415 90.5794C120.52 92.6044 117.642 89.9269 116.888 88.0581C115.499 84.6123 115.58 80.7776 115.683 77.0653C115.74 74.9949 115.802 72.8952 116.41 70.9152C117.129 68.7631 118.324 66.7998 119.906 65.1707C124.351 60.3866 131.06 57.8996 137.554 58.3078C142.633 58.6268 151.543 62.884 147.561 69.3349C146.652 70.8063 145.246 71.8988 143.809 72.8649C139.613 75.6872 134.923 77.7021 130.16 79.4116C129.81 79.5366 129.457 79.6619 129.105 79.7917Z" fill="#0B2D4E"/>
<path id="Vector_20" d="M120.476 78.7826C126.129 80.2289 128.314 90.8515 122.007 92.9662C115.23 95.2385 110.461 85.4479 114.909 80.6514C116.643 78.781 118.656 78.3174 120.476 78.7826Z" fill="#1565C0"/>
<path id="Vector_21" d="M118.622 80.146C122.525 80.7714 124.929 89.0411 120.907 91.3173C116.585 93.7641 112.53 86.3985 115.072 82.1569C116.063 80.5026 117.366 79.9447 118.622 80.146Z" fill="#1565C0"/>
<g id="Group_6">
<path id="Vector_22" d="M117.834 79.5257L119.342 79.3518C118.319 70.5353 118.755 59.2707 126.639 55.6729C130.372 53.9692 141.063 52.0786 145.77 58.4134C146.336 59.0473 146.715 59.579 146.715 59.579C143.797 50.5972 130.037 52.4581 126.008 54.2971C117.295 58.2724 116.753 70.2107 117.834 79.5257Z" fill="#1565C0"/>
</g>
<g id="Group_7">
<path id="Vector_23" d="M177.13 162.755H146.13V168.809H177.13V162.755Z" fill="#CCCCCC"/>
<path id="Vector_24" d="M171.808 163.343L179.632 123.614C179.732 123.105 180.007 122.647 180.408 122.317C180.81 121.988 181.313 121.808 181.833 121.808H233.844C234.197 121.808 234.544 121.892 234.857 122.052C235.17 122.212 235.441 122.445 235.647 122.73L235.654 122.723L238.056 125.556L235.925 125.089L228.222 164.206C228.122 164.715 227.848 165.174 227.446 165.503C227.045 165.833 226.541 166.013 226.021 166.013H174.011C173.679 166.013 173.352 165.94 173.052 165.799C172.753 165.658 172.488 165.452 172.277 165.197C172.067 164.942 171.915 164.643 171.834 164.322C171.753 164.002 171.744 163.667 171.808 163.343Z" fill="#CCCCCC"/>
<path id="Vector_25" d="M228.399 168.809H176.39C176.059 168.809 175.731 168.736 175.432 168.595C175.132 168.454 174.868 168.249 174.657 167.993C174.447 167.738 174.296 167.44 174.215 167.119C174.134 166.799 174.125 166.465 174.189 166.141L182.012 126.412C182.112 125.903 182.387 125.444 182.788 125.115C183.19 124.785 183.693 124.605 184.213 124.605H236.223C236.554 124.605 236.881 124.678 237.181 124.82C237.48 124.961 237.745 125.166 237.955 125.421C238.166 125.676 238.317 125.975 238.398 126.295C238.479 126.615 238.488 126.95 238.424 127.274L230.601 167.003C230.5 167.512 230.226 167.97 229.825 168.3C229.423 168.629 228.919 168.809 228.399 168.809Z" fill="white"/>
<path id="Vector_26" d="M212.04 145.723C211.56 148.403 208.993 150.575 206.306 150.575C203.62 150.575 201.861 148.403 202.38 145.723C202.898 143.043 205.465 140.871 208.113 140.871C210.761 140.871 212.519 143.043 212.04 145.723Z" fill="#CCCCCC"/>
</g>
<g id="Group_8">
<g id="Group_9">
<g id="Group_10">
<path id="Vector_27" d="M62.7531 145.09C62.252 143.966 62.2128 142.691 62.6439 141.539C62.9912 140.387 63.6113 139.394 64.2828 138.309C65.0474 137.185 65.6516 135.96 66.0781 134.67C66.4628 133.239 66.4322 131.728 65.9898 130.313C65.1355 127.568 63.386 125.545 62.1807 123.475C61.5538 122.465 61.1156 121.351 60.8871 120.186C60.6356 118.978 60.7866 117.722 61.3173 116.607C60.3216 117.477 59.8392 118.885 59.7741 120.249C59.7444 121.628 60.0238 122.996 60.5918 124.254C61.6384 126.747 63.2061 128.771 63.8164 130.959C64.1712 131.983 64.2353 133.085 64.0019 134.142C63.7965 135.219 63.2319 136.306 62.724 137.485C62.1127 138.691 61.7171 139.994 61.555 141.335C61.4376 142.684 61.7467 144.207 62.7531 145.09Z" fill="white"/>
</g>
</g>
<g id="Group_11">
<path id="Vector_28" d="M54.4907 146.599H69.947V160.974C69.947 163.018 69.1328 164.979 67.6835 166.425C66.2342 167.87 64.2685 168.682 62.2189 168.682C60.1692 168.682 58.2036 167.87 56.7542 166.425C55.3049 164.979 54.4907 163.018 54.4907 160.974V146.599Z" fill="#1565C0"/>
<path id="Vector_29" d="M53.4113 151.595C54.7624 151.575 56.0888 151.957 57.2217 152.691C58.3547 153.425 59.2431 154.479 59.7738 155.719C60.3045 156.958 60.4536 158.327 60.2021 159.651C59.9506 160.976 59.3099 162.195 58.3615 163.155C57.413 164.115 56.1998 164.772 54.876 165.042C53.5522 165.312 52.1778 165.184 50.9276 164.673C49.6773 164.161 48.6078 163.291 47.8551 162.171C47.1023 161.052 46.7004 159.735 46.7004 158.387C46.6874 156.599 47.3871 154.879 48.6457 153.605C49.9042 152.331 51.6184 151.608 53.4113 151.595ZM53.4113 162.757C54.2809 162.77 55.1347 162.524 55.864 162.052C56.5933 161.579 57.1653 160.901 57.507 160.104C57.8487 159.306 57.9448 158.425 57.7831 157.572C57.6213 156.72 57.2089 155.935 56.5985 155.317C55.9881 154.699 55.2071 154.277 54.3551 154.103C53.5031 153.929 52.6185 154.012 51.8138 154.341C51.0092 154.67 50.3209 155.23 49.8365 155.951C49.3522 156.671 49.0937 157.519 49.0939 158.387C49.0859 159.537 49.5362 160.644 50.3458 161.463C51.1554 162.282 52.2581 162.747 53.4113 162.756V162.757Z" fill="#1565C0"/>
<path id="Vector_30" opacity="0.2" d="M67.6359 160.3C67.8573 160.3 68.0695 160.212 68.2261 160.056C68.3827 159.899 68.471 159.688 68.4716 159.467V148.72C68.471 148.499 68.3828 148.287 68.2262 148.131C68.0696 147.975 67.8574 147.887 67.6359 147.886C67.4145 147.887 67.2024 147.975 67.0458 148.131C66.8892 148.287 66.801 148.499 66.8003 148.72V159.467C66.801 159.688 66.8893 159.899 67.0458 160.056C67.2024 160.212 67.4146 160.3 67.6359 160.3Z" fill="white"/>
<path id="Vector_31" d="M58.0601 146.599V164.778C58.0601 165.813 58.4725 166.807 59.2066 167.539C59.9407 168.271 60.9364 168.682 61.9745 168.682H58.4052C57.367 168.682 56.3713 168.271 55.6372 167.539C54.9031 166.807 54.4907 165.813 54.4907 164.778V146.599H58.0601Z" fill="#2A94F4"/>
</g>
</g>
<g id="Group_12">
<g id="Group_13">
<path id="Vector_32" d="M40.6122 80.6431C42.0304 80.6349 43.4074 80.4529 44.3785 79.065C46.2853 76.3412 49.196 73.896 52.4602 76.6658C54.3428 78.2644 52.9269 81.5497 54.5476 83.1304C55.9805 84.5283 57.8023 84.2973 58.5353 86.6176C59.6146 90.0308 56.2157 93.0218 55.1249 95.9734C54.2091 98.4502 56.2696 99.3944 57.193 101.324C57.906 102.812 57.5397 104.406 56.7625 105.828C55.3924 108.337 52.3549 110.356 53.0587 113.604C53.6475 116.315 54.1924 118.731 51.7943 120.786C50.1504 122.194 47.1004 123.478 47.3326 126.084C47.4147 127.007 48.0548 127.793 48.2305 128.702C48.5081 130.142 47.5737 131.541 46.4881 132.53C44.0184 134.778 41.8492 136.898 39.9993 139.726C39.2087 140.933 36.0439 143.662 37.3087 145.314C35.0097 142.313 32.5799 139.4 30.4908 136.243C28.7727 133.646 26.1829 129.848 27.9459 126.651C28.494 125.656 29.5139 124.915 29.7932 123.815C30.2976 121.827 28.3403 119.985 27.6126 118.294C26.4701 115.64 27.3087 112.557 29.3212 110.565C30.2734 109.622 31.3066 108.585 31.4472 107.254C31.6 105.801 30.6864 104.446 30.272 103.105C29.8981 101.854 29.6437 100.571 29.5122 99.272C29.3815 98.3676 29.4076 97.4474 29.5894 96.5518C29.9957 94.8658 31.5192 93.9288 32.6447 92.7325C35.3267 89.8847 33.917 86.5361 35.0885 83.2263C36.1398 80.2558 38.4257 80.6558 40.6122 80.6431Z" fill="#1A8E2B"/>
<g id="Clip path group_2">
<mask id="mask1_269_4053" style="mask-type:luminance" maskUnits="userSpaceOnUse" x="27" y="75" width="32" height="71">
<g id="b">
<path id="Vector_33" d="M40.6122 80.6431C42.0304 80.6349 43.4074 80.4529 44.3785 79.065C46.2853 76.3412 49.196 73.896 52.4602 76.6658C54.3428 78.2644 52.9269 81.5497 54.5476 83.1304C55.9805 84.5283 57.8023 84.2973 58.5353 86.6176C59.6146 90.0308 56.2157 93.0218 55.1249 95.9734C54.2091 98.4502 56.2696 99.3944 57.193 101.324C57.906 102.812 57.5397 104.406 56.7625 105.828C55.3924 108.337 52.3549 110.356 53.0587 113.604C53.6475 116.315 54.1924 118.731 51.7943 120.786C50.1504 122.194 47.1004 123.478 47.3326 126.084C47.4147 127.007 48.0548 127.793 48.2305 128.702C48.5081 130.142 47.5737 131.541 46.4881 132.53C44.0184 134.778 41.8492 136.898 39.9993 139.726C39.2087 140.933 36.0439 143.662 37.3087 145.314C35.0097 142.313 32.5799 139.4 30.4908 136.243C28.7727 133.646 26.1829 129.848 27.9459 126.651C28.494 125.656 29.5139 124.915 29.7932 123.815C30.2976 121.827 28.3403 119.985 27.6126 118.294C26.4701 115.64 27.3087 112.557 29.3212 110.565C30.2734 109.622 31.3066 108.585 31.4472 107.254C31.6 105.801 30.6864 104.446 30.272 103.105C29.8981 101.854 29.6437 100.571 29.5122 99.272C29.3815 98.3676 29.4076 97.4474 29.5894 96.5518C29.9957 94.8658 31.5192 93.9288 32.6447 92.7325C35.3267 89.8847 33.917 86.5361 35.0885 83.2263C36.1398 80.2558 38.4257 80.6558 40.6122 80.6431Z" fill="white"/>
</g>
</mask>
<g mask="url(#mask1_269_4053)">
<g id="Group_14">
<g id="Group_15">
<path id="Vector_34" d="M37.0238 148.701C36.0275 137.315 36.9427 125.838 39.0517 114.625C41.0635 103.928 43.7037 93.1944 47.7064 83.0541C49.0211 79.6993 50.5219 76.42 52.2018 73.2314" stroke="#26D15B" stroke-width="5" stroke-miterlimit="10"/>
<path id="Vector_35" d="M61.2126 88.4995C55.5866 90.4813 50.2426 93.1838 45.3148 96.5392C44.0663 97.3897 43.3713 97.6484 42.3306 98.7433" stroke="#26D15B" stroke-width="5" stroke-miterlimit="10"/>
<path id="Vector_36" d="M39.666 110.942C45.0798 107.457 51.1532 105.119 57.51 104.072" stroke="#26D15B" stroke-width="5" stroke-miterlimit="10"/>
<path id="Vector_37" d="M37.5332 125.63C42.5827 121.276 48.6387 118.244 55.1557 116.807" stroke="#26D15B" stroke-width="5" stroke-miterlimit="10"/>
<path id="Vector_38" d="M42.6094 98.3682C42.2129 92.3279 40.718 86.41 38.1978 80.9036" stroke="#26D15B" stroke-width="5" stroke-miterlimit="10"/>
<path id="Vector_39" d="M39.735 110.444C37.1723 104.986 33.514 100.11 28.9863 96.1179" stroke="#26D15B" stroke-width="5" stroke-miterlimit="10"/>
<path id="Vector_40" d="M37.1993 126.046C36.8457 124.362 36.2303 122.743 35.3753 121.248C34.3346 119.539 33.1229 117.939 31.7588 116.474C30.8057 115.394 29.8364 114.328 28.8511 113.277" stroke="#26D15B" stroke-width="5" stroke-miterlimit="10"/>
</g>
</g>
</g>
</g>
</g>
<g id="Group_16">
<path id="Vector_41" d="M23.1954 101.396C22.1657 101.586 21.1417 101.644 20.2445 100.772C18.4832 99.0588 16.0328 97.6869 14.0494 100.147C12.9046 101.566 14.3882 103.754 13.4325 105.124C12.587 106.336 11.2336 106.42 11.0239 108.204C10.7155 110.829 13.5951 112.529 14.7958 114.52C15.8035 116.19 14.4412 117.159 14.0383 118.687C13.7275 119.865 14.2145 120.971 14.9756 121.895C16.3166 123.526 18.8024 124.57 18.7413 127.024C18.6916 129.072 18.6304 130.9 20.6553 132.059C22.0431 132.854 24.4337 133.364 24.627 135.286C24.695 135.967 24.3402 136.624 24.3392 137.309C24.3375 138.392 25.2099 139.278 26.1345 139.845C28.2379 141.134 30.1055 142.372 31.8397 144.168C32.5808 144.936 35.255 146.478 34.5668 147.851C35.8179 145.356 37.1762 142.907 38.2533 140.329C39.1394 138.209 40.4911 135.096 38.7684 133.021C38.2327 132.376 37.3902 131.977 37.035 131.219C36.3932 129.849 37.5582 128.241 37.8506 126.913C38.3108 124.83 37.275 122.709 35.5389 121.542C34.7173 120.989 33.824 120.38 33.5379 119.434C33.2255 118.401 33.7014 117.292 33.8145 116.262C33.9123 115.303 33.9188 114.337 33.8338 113.377C33.8032 112.703 33.6566 112.039 33.4005 111.414C32.8716 110.247 31.6375 109.778 30.653 109.065C28.3125 107.369 28.8701 104.746 27.5612 102.508C26.386 100.498 24.7833 101.103 23.1954 101.396Z" fill="#1A8E2B"/>
<g id="Clip path group_3">
<mask id="mask2_269_4053" style="mask-type:luminance" maskUnits="userSpaceOnUse" x="11" y="98" width="29" height="50">
<g id="c">
<path id="Vector_42" d="M23.1954 101.396C22.1657 101.586 21.1417 101.644 20.2445 100.772C18.4832 99.0588 16.0328 97.6869 14.0494 100.147C12.9046 101.566 14.3882 103.754 13.4325 105.124C12.587 106.336 11.2336 106.42 11.0239 108.204C10.7155 110.829 13.5951 112.529 14.7958 114.52C15.8035 116.19 14.4412 117.159 14.0383 118.687C13.7275 119.865 14.2145 120.971 14.9756 121.895C16.3166 123.526 18.8024 124.57 18.7413 127.024C18.6916 129.072 18.6304 130.9 20.6553 132.059C22.0431 132.854 24.4337 133.364 24.627 135.286C24.695 135.967 24.3402 136.624 24.3392 137.309C24.3375 138.392 25.2099 139.278 26.1345 139.845C28.2379 141.134 30.1055 142.372 31.8397 144.168C32.5808 144.936 35.255 146.478 34.5668 147.851C35.8179 145.356 37.1762 142.907 38.2533 140.329C39.1394 138.209 40.4911 135.096 38.7684 133.021C38.2327 132.376 37.3902 131.977 37.035 131.219C36.3932 129.849 37.5582 128.241 37.8506 126.913C38.3108 124.83 37.275 122.709 35.5389 121.542C34.7173 120.989 33.824 120.38 33.5379 119.434C33.2255 118.401 33.7014 117.292 33.8145 116.262C33.9123 115.303 33.9188 114.337 33.8338 113.377C33.8032 112.703 33.6566 112.039 33.4005 111.414C32.8716 110.247 31.6375 109.778 30.653 109.065C28.3125 107.369 28.8701 104.746 27.5612 102.508C26.386 100.498 24.7833 101.103 23.1954 101.396Z" fill="white"/>
</g>
</mask>
<g mask="url(#mask2_269_4053)">
<g id="Group_17">
<g id="Group_18">
<path id="Vector_43" d="M35.2429 150.268C34.3856 141.871 32.1295 133.673 29.0438 125.83C26.1001 118.348 22.6956 110.927 18.3848 104.124C16.9657 101.872 15.4221 99.7003 13.7612 97.6194" stroke="#26D15B" stroke-width="5" stroke-miterlimit="10"/>
<path id="Vector_44" d="M9.34326 109.939C13.6992 110.6 17.9506 111.822 21.9906 113.576C23.0144 114.02 23.5544 114.113 24.461 114.763" stroke="#26D15B" stroke-width="5" stroke-miterlimit="10"/>
<path id="Vector_45" d="M28.0867 123.243C23.6762 121.463 18.9463 120.605 14.1899 120.723" stroke="#26D15B" stroke-width="5" stroke-miterlimit="10"/>
<path id="Vector_46" d="M31.6715 133.603C27.4047 131.142 22.5911 129.779 17.6646 129.636" stroke="#26D15B" stroke-width="5" stroke-miterlimit="10"/>
<path id="Vector_47" d="M24.2068 114.529C23.656 110.093 23.9192 105.593 24.9833 101.251" stroke="#26D15B" stroke-width="5" stroke-miterlimit="10"/>
<path id="Vector_48" d="M27.9678 122.892C29.0692 118.579 31.0461 114.538 33.7763 111.017" stroke="#26D15B" stroke-width="5" stroke-miterlimit="10"/>
<path id="Vector_49" d="M31.9722 133.86C31.9949 132.589 32.2167 131.33 32.6296 130.127C33.1477 128.744 33.8053 127.417 34.592 126.166C35.1335 125.251 35.6886 124.344 36.2575 123.445" stroke="#26D15B" stroke-width="5" stroke-miterlimit="10"/>
</g>
</g>
</g>
</g>
</g>
<path id="Vector_50" d="M45.2568 147.359H24.2114L27.9034 168.367H41.566L45.2568 147.359Z" fill="#EFB126"/>
<path id="Vector_51" d="M47.8329 141.463H21.6348V147.359H47.8329V141.463Z" fill="#FFC73C"/>
<path id="Vector_52" opacity="0.1" d="M24.701 150.145H44.7672L45.2578 147.36H24.2114L24.701 150.145Z" fill="#231F20"/>
</g>
<path id="Vector_53" d="M121.555 159.397C120.923 159.29 120.29 159.186 119.658 159.087C116.578 158.605 113.512 158.033 110.46 157.371C104.419 156.061 98.3426 154.935 92.1929 154.354C91.5412 154.293 90.8888 154.237 90.236 154.188C87.4791 153.98 84.59 153.913 82.0663 155.228C79.5426 156.542 77.5354 159.653 78.1519 162.652C78.5849 164.759 80.2 166.345 81.995 167.144C83.79 167.944 85.7655 168.083 87.7038 168.213L106.54 169.478C109.649 169.685 112.758 169.897 115.866 170.115C118.835 170.32 121.848 170.739 124.824 170.735C126.083 170.735 127.489 170.498 128.547 169.66C130.019 168.495 130.902 166.015 131.045 164.077C131.119 163.07 130.922 161.849 130.149 161.226C129.719 160.932 129.222 160.75 128.703 160.698C126.317 160.261 123.942 159.804 121.555 159.397Z" fill="#3366CC"/>
<path id="Vector_54" d="M128.599 168.941C130.117 169.253 131.303 170.583 132.815 171.029C133.902 171.304 135.049 171.22 136.084 170.789C137.036 170.433 138.005 170.242 138.984 169.93C139.746 169.686 140.775 169.174 141.594 169.343C143.74 169.788 145.881 171.311 147.826 172.301C148.264 172.523 148.742 172.752 149.225 172.66C149.709 172.567 150.108 171.985 149.835 171.579C150.395 172.101 151.136 173.145 152.039 172.739C152.131 172.699 152.214 172.642 152.283 172.57C152.353 172.498 152.407 172.413 152.443 172.319C152.479 172.226 152.496 172.127 152.494 172.027C152.491 171.927 152.468 171.829 152.427 171.738C152.712 172.1 153.076 172.394 153.491 172.596C153.701 172.692 153.937 172.715 154.162 172.663C154.387 172.611 154.588 172.486 154.734 172.307C154.843 172.119 154.9 171.905 154.9 171.688C154.908 170.94 154.737 170.202 154.401 169.534C152.869 166.199 149.404 163.724 146.456 161.737C145.951 161.36 145.393 161.059 144.801 160.846C144.255 160.703 143.691 160.641 143.127 160.661C139.462 160.646 135.82 161.233 132.347 162.398C131.597 162.65 130.772 162.436 130.025 162.296C129.479 162.15 128.906 162.133 128.353 162.248C127.757 162.467 127.25 162.876 126.911 163.411C126.233 164.349 125.715 165.59 125.796 166.768C125.858 167.662 125.927 168.627 126.981 168.815C127.409 168.891 127.849 168.844 128.281 168.889C128.388 168.901 128.494 168.918 128.599 168.941Z" fill="#F8A17A"/>
<path id="Vector_55" d="M17.3967 184H240.387C242.659 184 244.5 180.492 244.5 176.165C244.5 171.838 242.659 168.331 240.387 168.331H17.3967C15.1251 168.331 13.2837 171.838 13.2837 176.165C13.2837 180.492 15.1241 184 17.3967 184Z" fill="#2A94F4"/>
<g id="Group_19">
<path id="Vector_56" d="M146.932 28.1313H155.263C156.969 28.1361 158.604 28.8143 159.811 30.0178C161.018 31.2214 161.698 32.8523 161.703 34.5545C161.701 35.595 161.446 36.6196 160.96 37.5402C160.474 38.4609 159.771 39.2499 158.911 39.8397V44.3601L154.276 40.9786H146.933C145.227 40.9736 143.592 40.2953 142.386 39.0919C141.179 37.8885 140.499 36.2577 140.494 34.5558C140.499 32.8538 141.178 31.2227 142.385 30.019C143.591 28.8152 145.226 28.1366 146.932 28.1313Z" fill="#2A94F4"/>
<path id="Vector_57" d="M155.763 35.5292C156.303 35.5292 156.741 35.0928 156.741 34.5544C156.741 34.016 156.303 33.5796 155.763 33.5796C155.224 33.5796 154.786 34.016 154.786 34.5544C154.786 35.0928 155.224 35.5292 155.763 35.5292Z" fill="white"/>
<path id="Vector_58" d="M151.097 35.5292C151.637 35.5292 152.075 35.0928 152.075 34.5544C152.075 34.016 151.637 33.5796 151.097 33.5796C150.558 33.5796 150.12 34.016 150.12 34.5544C150.12 35.0928 150.558 35.5292 151.097 35.5292Z" fill="white"/>
<path id="Vector_59" d="M146.432 35.5292C146.972 35.5292 147.409 35.0928 147.409 34.5544C147.409 34.016 146.972 33.5796 146.432 33.5796C145.892 33.5796 145.455 34.016 145.455 34.5544C145.455 35.0928 145.892 35.5292 146.432 35.5292Z" fill="white"/>
</g>
<path id="Vector_60" d="M65.4962 92.8766C66.7806 90.6846 70.0226 89.5835 73.1563 93.2355C76.29 89.5816 79.5323 90.683 80.8164 92.8766C83.9812 98.2783 73.1563 104.635 73.1563 104.635C73.1563 104.635 62.3314 98.277 65.4962 92.8766Z" fill="#2A94F4"/>
<g id="Group_20">
<path id="Vector_61" d="M110.804 25.0328H93.5667C93.0248 25.0328 92.5854 25.471 92.5854 26.0116V36.8318C92.5854 37.3724 93.0248 37.8106 93.5667 37.8106H110.804C111.346 37.8106 111.785 37.3724 111.785 36.8318V26.0116C111.785 25.471 111.346 25.0328 110.804 25.0328Z" fill="#2A94F4"/>
<path id="Vector_62" d="M111.475 25.4432L103.069 33.5733C102.83 33.7972 102.514 33.9218 102.186 33.9218C101.858 33.9218 101.542 33.7972 101.303 33.5733L92.897 25.4432" stroke="white" stroke-width="4" stroke-miterlimit="10"/>
<path id="Vector_63" d="M111.475 37.3985L104.578 32.114" stroke="white" stroke-width="4" stroke-miterlimit="10"/>
<path id="Vector_64" d="M92.8955 37.3985L99.7929 32.114" stroke="white" stroke-width="4" stroke-miterlimit="10"/>
</g>
<g id="Group_21">
<g id="Group_22">
<path id="Vector_65" d="M187.976 72.3076H173.648C171.48 72.3076 169.723 74.0604 169.723 76.2226V83.7582C169.723 85.9204 171.48 87.6731 173.648 87.6731H187.976C190.144 87.6731 191.901 85.9204 191.901 83.7582V76.2226C191.901 74.0604 190.144 72.3076 187.976 72.3076Z" fill="#2A94F4"/>
</g>
<g id="Group_23">
<path id="Vector_66" d="M180.812 92.5273L176.923 87.2959H184.701L180.812 92.5273Z" fill="#2A94F4"/>
</g>
<g id="Group_24">
<path id="Vector_67" d="M186.894 81.9662H185.935V79.3461L185.944 78.9155L185.959 78.4447C185.8 78.6037 185.689 78.708 185.627 78.7576L185.105 79.1758L184.643 78.5997L186.105 77.4382H186.894V81.9662Z" fill="white"/>
</g>
<g id="Group_25">
<path id="Vector_68" d="M177.063 77.2869H180.21C180.855 77.2888 181.473 77.5451 181.929 77.9998C182.385 78.4545 182.642 79.0707 182.643 79.7138C182.643 80.1069 182.546 80.494 182.363 80.8418C182.179 81.1895 181.913 81.4876 181.589 81.7104V83.4187L179.837 82.1407H177.063C176.418 82.1389 175.8 81.8826 175.344 81.4278C174.888 80.9731 174.631 80.3569 174.629 79.7138C174.631 79.0707 174.888 78.4544 175.344 77.9997C175.8 77.5449 176.418 77.2887 177.063 77.2869Z" fill="white"/>
</g>
</g>
</g>
</g>
<defs>
<clipPath id="clip0_269_4053">
<rect width="244" height="220" fill="white" transform="translate(0.5)"/>
</clipPath>
</defs>
</svg>
